<?xml version="1.0" encoding="UTF-8" standalone="no"?>
<!DOCTYPE svg PUBLIC "-//W3C//DTD SVG 1.1//EN"
 "http://www.w3.org/Graphics/SVG/1.1/DTD/svg11.dtd">
<!-- Generated by graphviz version 2.40.1 (20161225.0304)
 -->
<!-- Title: disk_states Pages: 1 -->
<svg width="754pt" height="479pt"
 viewBox="0.00 0.00 753.90 479.00" xmlns="http://www.w3.org/2000/svg" xmlns:xlink="http://www.w3.org/1999/xlink">
<g id="graph0" class="graph" transform="scale(1 1) rotate(0) translate(4 475)">
<title>disk_states</title>
<polygon fill="#ffffff" stroke="transparent" points="-4,4 -4,-475 749.8962,-475 749.8962,4 -4,4"/>
<!-- Diskless -->
<g id="node1" class="node">
<title>Diskless</title>
<ellipse fill="none" stroke="#000000" cx="246.8962" cy="-453" rx="40.0939" ry="18"/>
<text text-anchor="middle" x="246.8962" y="-449.3" font-family="Times,serif" font-size="14.00" fill="#000000">Diskless</text>
</g>
<!-- Inconsistent -->
<g id="node2" class="node">
<title>Inconsistent</title>
<ellipse fill="none" stroke="#000000" cx="158.8962" cy="-192" rx="53.0913" ry="18"/>
<text text-anchor="middle" x="158.8962" y="-188.3" font-family="Times,serif" font-size="14.00" fill="#000000">Inconsistent</text>
</g>
<!-- Diskless&#45;&gt;Inconsistent -->
<g id="edge1" class="edge">
<title>Diskless&#45;&gt;Inconsistent</title>
<path fill="none" stroke="#000000" d="M225.9302,-437.5129C199.5318,-416.5602 155.5044,-376.4191 137.8962,-330 123.9797,-293.3133 136.0667,-247.8314 146.8314,-219.3545"/>
<polygon fill="#000000" stroke="#000000" points="150.0952,-220.6189 150.5391,-210.0334 143.5908,-218.0316 150.0952,-220.6189"/>
<text text-anchor="middle" x="180.3962" y="-318.8" font-family="Times,serif" font-size="14.00" fill="#000000">ioctl_set_disk()</text>
</g>
<!-- Consistent -->
<g id="node3" class="node">
<title>Consistent</title>
<ellipse fill="none" stroke="#000000" cx="353.8962" cy="-366" rx="48.1917" ry="18"/>
<text text-anchor="middle" x="353.8962" y="-362.3" font-family="Times,serif" font-size="14.00" fill="#000000">Consistent</text>
</g>
<!-- Diskless&#45;&gt;Consistent -->
<g id="edge2" class="edge">
<title>Diskless&#45;&gt;Consistent</title>
<path fill="none" stroke="#000000" d="M266.5216,-437.0429C283.129,-423.5397 307.1343,-404.0214 325.7826,-388.8588"/>
<polygon fill="#000000" stroke="#000000" points="328.1172,-391.4714 333.6681,-382.4471 323.7011,-386.0402 328.1172,-391.4714"/>
<text text-anchor="middle" x="348.3962" y="-405.8" font-family="Times,serif" font-size="14.00" fill="#000000">ioctl_set_disk()</text>
</g>
<!-- Outdated -->
<g id="node4" class="node">
<title>Outdated</title>
<ellipse fill="none" stroke="#000000" cx="42.8962" cy="-279" rx="42.7926" ry="18"/>
<text text-anchor="middle" x="42.8962" y="-275.3" font-family="Times,serif" font-size="14.00" fill="#000000">Outdated</text>
</g>
<!-- Diskless&#45;&gt;Outdated -->
<g id="edge3" class="edge">
<title>Diskless&#45;&gt;Outdated</title>
<path fill="none" stroke="#000000" d="M209.3628,-445.9243C155.6219,-434.9248 61.0921,-412.0443 41.8962,-384 26.5376,-361.5618 29.4156,-329.626 34.4932,-306.8771"/>
<polygon fill="#000000" stroke="#000000" points="37.898,-307.6884 36.9233,-297.1385 31.1062,-305.9935 37.898,-307.6884"/>
<text text-anchor="middle" x="84.3962" y="-362.3" font-family="Times,serif" font-size="14.00" fill="#000000">ioctl_set_disk()</text>
</g>
<!-- UpToDate -->
<g id="node5" class="node">
<title>UpToDate</title>
<ellipse fill="none" stroke="#000000" cx="312.8962" cy="-105" rx="47.3916" ry="18"/>
<text text-anchor="middle" x="312.8962" y="-101.3" font-family="Times,serif" font-size="14.00" fill="#000000">UpToDate</text>
</g>
<!-- Inconsistent&#45;&gt;UpToDate -->
<g id="edge9" class="edge">
<title>Inconsistent&#45;&gt;UpToDate</title>
<path fill="none" stroke="#000000" d="M159.0045,-173.6124C160.0619,-162.7038 163.2479,-149.4072 171.8962,-141 198.028,-115.5967 216.6222,-132.1621 251.8962,-123 256.5284,-121.7968 261.3407,-120.4851 266.1392,-119.136"/>
<polygon fill="#000000" stroke="#000000" points="267.2585,-122.4562 275.9077,-116.3373 265.3304,-115.727 267.2585,-122.4562"/>
<text text-anchor="middle" x="219.8962" y="-144.8" font-family="Times,serif" font-size="14.00" fill="#000000">resync completed</text>
</g>
<!-- Failed -->
<g id="node6" class="node">
<title>Failed</title>
<ellipse fill="none" stroke="#000000" cx="312.8962" cy="-18" rx="32.4942" ry="18"/>
<text text-anchor="middle" x="312.8962" y="-14.3" font-family="Times,serif" font-size="14.00" fill="#000000">Failed</text>
</g>
<!-- Inconsistent&#45;&gt;Failed -->
<g id="edge13" class="edge">
<title>Inconsistent&#45;&gt;Failed</title>
<path fill="none" stroke="#000000" d="M151.2768,-173.977C143.1284,-151.6136 133.5566,-113.2322 150.8962,-87 177.357,-46.9686 232.2769,-30.0869 270.8062,-23.0163"/>
<polygon fill="#000000" stroke="#000000" points="271.4318,-26.4603 280.7107,-21.3463 270.268,-19.5578 271.4318,-26.4603"/>
<text text-anchor="middle" x="203.8962" y="-101.3" font-family="Times,serif" font-size="14.00" fill="#000000">io completion error</text>
</g>
<!-- Consistent&#45;&gt;Inconsistent -->
<g id="edge6" class="edge">
<title>Consistent&#45;&gt;Inconsistent</title>
<path fill="none" stroke="#000000" d="M352.3535,-347.97C350.6762,-337.4602 347.1797,-324.4564 339.8962,-315 330.1744,-302.378 322.3231,-305.5759 308.8962,-297 266.5919,-269.9799 219.4034,-236.342 189.453,-214.5317"/>
<polygon fill="#000000" stroke="#000000" points="191.2483,-211.5088 181.1087,-208.4364 187.1192,-217.1613 191.2483,-211.5088"/>
<text text-anchor="middle" x="340.8962" y="-275.3" font-family="Times,serif" font-size="14.00" fill="#000000">start resync</text>
</g>
<!-- Consistent&#45;&gt;Outdated -->
<g id="edge4" class="edge">
<title>Consistent&#45;&gt;Outdated</title>
<path fill="none" stroke="#000000" d="M315.4485,-355.1653C295.4298,-348.9127 270.8289,-340.2559 249.8962,-330 238.9369,-324.6305 238.2043,-319.5896 226.8962,-315 184.4405,-297.7685 133.0418,-288.6023 95.3716,-283.8418"/>
<polygon fill="#000000" stroke="#000000" points="95.4754,-280.3292 85.1296,-282.6128 94.6414,-287.2794 95.4754,-280.3292"/>
<text text-anchor="middle" x="294.8962" y="-318.8" font-family="Times,serif" font-size="14.00" fill="#000000">receive_param()</text>
</g>
<!-- Consistent&#45;&gt;UpToDate -->
<g id="edge5" class="edge">
<title>Consistent&#45;&gt;UpToDate</title>
<path fill="none" stroke="#000000" d="M361.2852,-348.1851C376.6544,-308.118 407.5556,-209.0889 368.8962,-141 365.1691,-134.4356 359.6987,-128.8774 353.6172,-124.2394"/>
<polygon fill="#000000" stroke="#000000" points="355.3025,-121.1549 345.0517,-118.477 351.3952,-126.963 355.3025,-121.1549"/>
<text text-anchor="middle" x="431.8962" y="-231.8" font-family="Times,serif" font-size="14.00" fill="#000000">receive_param()</text>
</g>
<!-- Consistent&#45;&gt;Failed -->
<g id="edge10" class="edge">
<title>Consistent&#45;&gt;Failed</title>
<path fill="none" stroke="#000000" d="M396.8038,-357.7877C437.314,-347.2531 491.8962,-324.5985 491.8962,-279 491.8962,-279 491.8962,-279 491.8962,-105 491.8962,-74.1625 404.8739,-44.0322 352.182,-28.6148"/>
<polygon fill="#000000" stroke="#000000" points="353.032,-25.2175 342.4544,-25.8209 351.0997,-31.9455 353.032,-25.2175"/>
<text text-anchor="middle" x="544.8962" y="-188.3" font-family="Times,serif" font-size="14.00" fill="#000000">io completion error</text>
</g>
<!-- Outdated&#45;&gt;Inconsistent -->
<g id="edge7" class="edge">
<title>Outdated&#45;&gt;Inconsistent</title>
<path fill="none" stroke="#000000" d="M46.1329,-260.8962C48.9151,-250.0944 53.953,-236.8104 62.8962,-228 73.8171,-217.2412 88.2553,-209.647 102.6082,-204.3056"/>
<polygon fill="#000000" stroke="#000000" points="104.1402,-207.482 112.4869,-200.9565 101.8926,-200.8526 104.1402,-207.482"/>
<text text-anchor="middle" x="94.8962" y="-231.8" font-family="Times,serif" font-size="14.00" fill="#000000">start resync</text>
</g>
<!-- Outdated&#45;&gt;Failed -->
<g id="edge11" class="edge">
<title>Outdated&#45;&gt;Failed</title>
<path fill="none" stroke="#000000" d="M35.8523,-261.1857C26.1571,-233.6115 12.1198,-179.739 32.8962,-141 79.1071,-54.8368 203.7182,-28.9886 270.0271,-21.2665"/>
<polygon fill="#000000" stroke="#000000" points="270.5801,-24.7272 280.1477,-20.1763 269.8304,-17.7675 270.5801,-24.7272"/>
<text text-anchor="middle" x="85.8962" y="-144.8" font-family="Times,serif" font-size="14.00" fill="#000000">io completion error</text>
</g>
<!-- UpToDate&#45;&gt;Inconsistent -->
<g id="edge8" class="edge">
<title>UpToDate&#45;&gt;Inconsistent</title>
<path fill="none" stroke="#000000" d="M302.3909,-122.8429C295.0964,-133.8214 284.4515,-147.3912 271.8962,-156 255.1943,-167.452 234.6462,-175.4182 215.6727,-180.8867"/>
<polygon fill="#000000" stroke="#000000" points="214.6622,-177.5342 205.923,-183.524 216.49,-184.2914 214.6622,-177.5342"/>
<text text-anchor="middle" x="325.8962" y="-144.8" font-family="Times,serif" font-size="14.00" fill="#000000">ioctl_replicate</text>
</g>
<!-- UpToDate&#45;&gt;Failed -->
<g id="edge12" class="edge">
<title>UpToDate&#45;&gt;Failed</title>
<path fill="none" stroke="#000000" d="M312.8962,-86.9735C312.8962,-75.1918 312.8962,-59.5607 312.8962,-46.1581"/>
<polygon fill="#000000" stroke="#000000" points="316.3963,-46.0033 312.8962,-36.0034 309.3963,-46.0034 316.3963,-46.0033"/>
<text text-anchor="middle" x="365.8962" y="-57.8" font-family="Times,serif" font-size="14.00" fill="#000000">io completion error</text>
</g>
<!-- Failed&#45;&gt;Diskless -->
<g id="edge14" class="edge">
<title>Failed&#45;&gt;Diskless</title>
<path fill="none" stroke="#000000" d="M345.2138,-20.0997C425.1848,-26.1774 625.8962,-47.1896 625.8962,-105 625.8962,-366 625.8962,-366 625.8962,-366 625.8962,-432.5738 400.9441,-448.2066 297.6534,-451.8757"/>
<polygon fill="#000000" stroke="#000000" points="297.3346,-448.3842 287.4558,-452.2129 297.5661,-455.3804 297.3346,-448.3842"/>
<text text-anchor="middle" x="685.8962" y="-231.8" font-family="Times,serif" font-size="14.00" fill="#000000">sending notify to peer</text>
</g>
</g>
</svg>
