<?xml version="1.0" encoding="UTF-8" standalone="no"?>
<!DOCTYPE svg PUBLIC "-//W3C//DTD SVG 1.1//EN"
 "http://www.w3.org/Graphics/SVG/1.1/DTD/svg11.dtd">
<!-- Generated by graphviz version 2.40.1 (20161225.0304)
 -->
<!-- Title: single_ppl Pages: 1 -->
<svg width="311pt" height="44pt"
 viewBox="0.00 0.00 311.00 44.00" xmlns="http://www.w3.org/2000/svg" xmlns:xlink="http://www.w3.org/1999/xlink">
<g id="graph0" class="graph" transform="scale(1 1) rotate(0) translate(4 40)">
<title>single_ppl</title>
<polygon fill="#ffffff" stroke="transparent" points="-4,4 -4,-40 307,-40 307,4 -4,4"/>
<!-- Compiz -->
<g id="node1" class="node">
<title>Compiz</title>
<polygon fill="none" stroke="#000000" points="59,-36 0,-36 0,0 59,0 59,-36"/>
<text text-anchor="middle" x="29.5" y="-14.3" font-family="Times,serif" font-size="14.00" fill="#000000">Compiz</text>
</g>
<!-- Improc -->
<g id="node2" class="node">
<title>Improc</title>
<polygon fill="none" stroke="#000000" points="151,-36 95,-36 95,0 151,0 151,-36"/>
<text text-anchor="middle" x="123" y="-14.3" font-family="Times,serif" font-size="14.00" fill="#000000">Improc</text>
</g>
<!-- Compiz&#45;&gt;Improc -->
<g id="edge1" class="edge">
<title>Compiz&#45;&gt;Improc</title>
<path fill="none" stroke="#000000" d="M59.084,-18C67.2237,-18 76.1696,-18 84.7239,-18"/>
<polygon fill="#000000" stroke="#000000" points="84.8836,-21.5001 94.8835,-18 84.8835,-14.5001 84.8836,-21.5001"/>
</g>
<!-- Timing Controller -->
<g id="node3" class="node">
<title>Timing Controller</title>
<polygon fill="none" stroke="#000000" points="303,-36 187,-36 187,0 303,0 303,-36"/>
<text text-anchor="middle" x="245" y="-14.3" font-family="Times,serif" font-size="14.00" fill="#000000">Timing Controller</text>
</g>
<!-- Improc&#45;&gt;Timing Controller -->
<g id="edge2" class="edge">
<title>Improc&#45;&gt;Timing Controller</title>
<path fill="none" stroke="#000000" d="M151.2959,-18C158.9674,-18 167.6186,-18 176.485,-18"/>
<polygon fill="#000000" stroke="#000000" points="176.546,-21.5001 186.546,-18 176.5459,-14.5001 176.546,-21.5001"/>
</g>
</g>
</svg>
