<?xml version="1.0" encoding="UTF-8" standalone="no"?>
<!DOCTYPE svg PUBLIC "-//W3C//DTD SVG 1.1//EN"
 "http://www.w3.org/Graphics/SVG/1.1/DTD/svg11.dtd">
<!-- Generated by graphviz version 2.40.1 (20161225.0304)
 -->
<!-- Title: layer_data_flow Pages: 1 -->
<svg width="362pt" height="98pt"
 viewBox="0.00 0.00 362.00 98.00" xmlns="http://www.w3.org/2000/svg" xmlns:xlink="http://www.w3.org/1999/xlink">
<g id="graph0" class="graph" transform="scale(1 1) rotate(0) translate(4 94)">
<title>layer_data_flow</title>
<polygon fill="#ffffff" stroke="transparent" points="-4,4 -4,-94 358,-94 358,4 -4,4"/>
<!-- Layer&#45;0/1 -->
<g id="node1" class="node">
<title>Layer&#45;0/1</title>
<polygon fill="none" stroke="#000000" points="69,-90 0,-90 0,-54 69,-54 69,-90"/>
<text text-anchor="middle" x="34.5" y="-68.3" font-family="Times,serif" font-size="14.00" fill="#000000">Layer&#45;0/1</text>
</g>
<!-- Scaler&#45;0 -->
<g id="node2" class="node">
<title>Scaler&#45;0</title>
<polygon fill="none" stroke="#000000" points="166,-90 105,-90 105,-54 166,-54 166,-90"/>
<text text-anchor="middle" x="135.5" y="-68.3" font-family="Times,serif" font-size="14.00" fill="#000000">Scaler&#45;0</text>
</g>
<!-- Layer&#45;0/1&#45;&gt;Scaler&#45;0 -->
<g id="edge1" class="edge">
<title>Layer&#45;0/1&#45;&gt;Scaler&#45;0</title>
<path fill="none" stroke="#000000" d="M69.2585,-72C77.4531,-72 86.2622,-72 94.6963,-72"/>
<polygon fill="#000000" stroke="#000000" points="94.7317,-75.5001 104.7316,-72 94.7316,-68.5001 94.7317,-75.5001"/>
</g>
<!-- Merger -->
<g id="node3" class="node">
<title>Merger</title>
<polygon fill="none" stroke="#000000" points="259,-63 202,-63 202,-27 259,-27 259,-63"/>
<text text-anchor="middle" x="230.5" y="-41.3" font-family="Times,serif" font-size="14.00" fill="#000000">Merger</text>
</g>
<!-- Scaler&#45;0&#45;&gt;Merger -->
<g id="edge2" class="edge">
<title>Scaler&#45;0&#45;&gt;Merger</title>
<path fill="none" stroke="#000000" d="M166.0815,-63.3084C174.3465,-60.9594 183.3976,-58.387 192.0349,-55.9322"/>
<polygon fill="#000000" stroke="#000000" points="193.2502,-59.2255 201.9123,-53.1249 191.3364,-52.4922 193.2502,-59.2255"/>
</g>
<!-- Compiz -->
<g id="node6" class="node">
<title>Compiz</title>
<polygon fill="none" stroke="#000000" points="354,-63 295,-63 295,-27 354,-27 354,-63"/>
<text text-anchor="middle" x="324.5" y="-41.3" font-family="Times,serif" font-size="14.00" fill="#000000">Compiz</text>
</g>
<!-- Merger&#45;&gt;Compiz -->
<g id="edge5" class="edge">
<title>Merger&#45;&gt;Compiz</title>
<path fill="none" stroke="#000000" d="M259.2139,-45C267.2746,-45 276.1856,-45 284.7655,-45"/>
<polygon fill="#000000" stroke="#000000" points="284.9876,-48.5001 294.9875,-45 284.9875,-41.5001 284.9876,-48.5001"/>
</g>
<!-- Layer&#45;2/3 -->
<g id="node4" class="node">
<title>Layer&#45;2/3</title>
<polygon fill="none" stroke="#000000" points="69,-36 0,-36 0,0 69,0 69,-36"/>
<text text-anchor="middle" x="34.5" y="-14.3" font-family="Times,serif" font-size="14.00" fill="#000000">Layer&#45;2/3</text>
</g>
<!-- Scaler&#45;1 -->
<g id="node5" class="node">
<title>Scaler&#45;1</title>
<polygon fill="none" stroke="#000000" points="166,-36 105,-36 105,0 166,0 166,-36"/>
<text text-anchor="middle" x="135.5" y="-14.3" font-family="Times,serif" font-size="14.00" fill="#000000">Scaler&#45;1</text>
</g>
<!-- Layer&#45;2/3&#45;&gt;Scaler&#45;1 -->
<g id="edge3" class="edge">
<title>Layer&#45;2/3&#45;&gt;Scaler&#45;1</title>
<path fill="none" stroke="#000000" d="M69.2585,-18C77.4531,-18 86.2622,-18 94.6963,-18"/>
<polygon fill="#000000" stroke="#000000" points="94.7317,-21.5001 104.7316,-18 94.7316,-14.5001 94.7317,-21.5001"/>
</g>
<!-- Scaler&#45;1&#45;&gt;Merger -->
<g id="edge4" class="edge">
<title>Scaler&#45;1&#45;&gt;Merger</title>
<path fill="none" stroke="#000000" d="M166.0815,-26.6916C174.3465,-29.0406 183.3976,-31.613 192.0349,-34.0678"/>
<polygon fill="#000000" stroke="#000000" points="191.3364,-37.5078 201.9123,-36.8751 193.2502,-30.7745 191.3364,-37.5078"/>
</g>
</g>
</svg>
