<?xml version="1.0" encoding="UTF-8" standalone="no"?>
<!DOCTYPE svg PUBLIC "-//W3C//DTD SVG 1.1//EN"
 "http://www.w3.org/Graphics/SVG/1.1/DTD/svg11.dtd">
<!-- Generated by graphviz version 2.40.1 (20161225.0304)
 -->
<!-- Title: %3 Pages: 1 -->
<svg width="1278pt" height="412pt"
 viewBox="0.00 0.00 1278.00 412.00" xmlns="http://www.w3.org/2000/svg" xmlns:xlink="http://www.w3.org/1999/xlink">
<g id="graph0" class="graph" transform="scale(1 1) rotate(0) translate(4 408)">
<title>%3</title>
<polygon fill="#ffffff" stroke="transparent" points="-4,4 -4,-408 1274,-408 1274,4 -4,4"/>
<g id="clust1" class="cluster">
<title>cluster_state</title>
<polygon fill="none" stroke="#000000" stroke-dasharray="5,2" points="8,-248 8,-396 989,-396 989,-248 8,-248"/>
<text text-anchor="middle" x="498.5" y="-380.8" font-family="Times,serif" font-size="14.00" fill="#000000">Free&#45;standing state</text>
</g>
<g id="clust2" class="cluster">
<title>cluster_current</title>
<polygon fill="none" stroke="#000000" stroke-dasharray="5,2" points="581,-8 581,-229 1262,-229 1262,-8 581,-8"/>
<text text-anchor="middle" x="921.5" y="-213.8" font-family="Times,serif" font-size="14.00" fill="#000000">Current state</text>
</g>
<!-- drm_atomic_state -->
<g id="node1" class="node">
<title>drm_atomic_state</title>
<polygon fill="none" stroke="#000000" points="625,-365 509,-365 509,-329 625,-329 625,-365"/>
<text text-anchor="middle" x="567" y="-343.3" font-family="Times,serif" font-size="14.00" fill="#000000">drm_atomic_state</text>
</g>
<!-- duplicated drm_plane_state A -->
<g id="node2" class="node">
<title>duplicated drm_plane_state A</title>
<polygon fill="none" stroke="#000000" points="197.5,-292 16.5,-292 16.5,-256 197.5,-256 197.5,-292"/>
<text text-anchor="middle" x="107" y="-270.3" font-family="Times,serif" font-size="14.00" fill="#000000">duplicated drm_plane_state A</text>
</g>
<!-- drm_atomic_state&#45;&gt;duplicated drm_plane_state A -->
<g id="edge1" class="edge">
<title>drm_atomic_state&#45;&gt;duplicated drm_plane_state A</title>
<path fill="none" stroke="#000000" d="M508.9385,-338.6128C439.8044,-328.5179 320.5798,-310.7686 207.9144,-292.1299"/>
<polygon fill="#000000" stroke="#000000" points="208.1709,-288.6247 197.7328,-290.4401 207.0247,-295.5302 208.1709,-288.6247"/>
</g>
<!-- duplicated drm_plane_state B -->
<g id="node3" class="node">
<title>duplicated drm_plane_state B</title>
<polygon fill="none" stroke="#000000" points="396,-292 216,-292 216,-256 396,-256 396,-292"/>
<text text-anchor="middle" x="306" y="-270.3" font-family="Times,serif" font-size="14.00" fill="#000000">duplicated drm_plane_state B</text>
</g>
<!-- drm_atomic_state&#45;&gt;duplicated drm_plane_state B -->
<g id="edge2" class="edge">
<title>drm_atomic_state&#45;&gt;duplicated drm_plane_state B</title>
<path fill="none" stroke="#000000" d="M508.7514,-330.7082C470.8602,-320.1103 421.1023,-306.1934 380.3625,-294.7987"/>
<polygon fill="#000000" stroke="#000000" points="381.0541,-291.3579 370.4809,-292.0349 379.1685,-298.0992 381.0541,-291.3579"/>
</g>
<!-- duplicated drm_crtc_state -->
<g id="node4" class="node">
<title>duplicated drm_crtc_state</title>
<polygon fill="none" stroke="#000000" points="573.5,-292 414.5,-292 414.5,-256 573.5,-256 573.5,-292"/>
<text text-anchor="middle" x="494" y="-270.3" font-family="Times,serif" font-size="14.00" fill="#000000">duplicated drm_crtc_state</text>
</g>
<!-- drm_atomic_state&#45;&gt;duplicated drm_crtc_state -->
<g id="edge3" class="edge">
<title>drm_atomic_state&#45;&gt;duplicated drm_crtc_state</title>
<path fill="none" stroke="#000000" d="M548.9551,-328.9551C540.0054,-320.0054 529.047,-309.047 519.2769,-299.2769"/>
<polygon fill="#000000" stroke="#000000" points="521.6363,-296.6866 512.0904,-292.0904 516.6866,-301.6363 521.6363,-296.6866"/>
</g>
<!-- duplicated drm_connector_state -->
<g id="node5" class="node">
<title>duplicated drm_connector_state</title>
<polygon fill="none" stroke="#000000" points="782.5,-292 591.5,-292 591.5,-256 782.5,-256 782.5,-292"/>
<text text-anchor="middle" x="687" y="-270.3" font-family="Times,serif" font-size="14.00" fill="#000000">duplicated drm_connector_state</text>
</g>
<!-- drm_atomic_state&#45;&gt;duplicated drm_connector_state -->
<g id="edge4" class="edge">
<title>drm_atomic_state&#45;&gt;duplicated drm_connector_state</title>
<path fill="none" stroke="#000000" d="M596.6629,-328.9551C612.24,-319.479 631.5193,-307.7508 648.2617,-297.5658"/>
<polygon fill="#000000" stroke="#000000" points="650.5381,-300.2778 657.2624,-292.0904 646.9,-294.2974 650.5381,-300.2778"/>
</g>
<!-- duplicated driver private state -->
<g id="node6" class="node">
<title>duplicated driver private state</title>
<polygon fill="none" stroke="#000000" points="981,-292 801,-292 801,-256 981,-256 981,-292"/>
<text text-anchor="middle" x="891" y="-270.3" font-family="Times,serif" font-size="14.00" fill="#000000">duplicated driver private state</text>
</g>
<!-- drm_atomic_state&#45;&gt;duplicated driver private state -->
<g id="edge5" class="edge">
<title>drm_atomic_state&#45;&gt;duplicated driver private state</title>
<path fill="none" stroke="#000000" d="M625.2989,-333.8648C674.1963,-322.8478 744.8389,-306.9314 800.9935,-294.2792"/>
<polygon fill="#000000" stroke="#000000" points="801.9577,-297.6498 810.9438,-292.0374 800.419,-290.821 801.9577,-297.6498"/>
</g>
<!-- drm_device -->
<g id="node7" class="node">
<title>drm_device</title>
<polygon fill="none" stroke="#000000" points="958,-198 876,-198 876,-162 958,-162 958,-198"/>
<text text-anchor="middle" x="917" y="-176.3" font-family="Times,serif" font-size="14.00" fill="#000000">drm_device</text>
</g>
<!-- drm_atomic_state&#45;&gt;drm_device -->
<g id="edge16" class="edge">
<title>drm_atomic_state&#45;&gt;drm_device</title>
<path fill="none" stroke="#000000" d="M625.2442,-343.6329C735.5983,-336.6562 966.2967,-318.9849 990,-292 1014.2219,-264.4248 980.6658,-228.1815 951.4692,-204.5004"/>
<polygon fill="#000000" stroke="#000000" points="953.4299,-201.5901 943.4015,-198.1719 949.1095,-207.0977 953.4299,-201.5901"/>
<text text-anchor="middle" x="1042" y="-270.3" font-family="Times,serif" font-size="14.00" fill="#000000">atomic_commit</text>
</g>
<!-- duplicated drm_plane_state A&#45;&gt;drm_device -->
<!-- drm_plane A -->
<g id="node8" class="node">
<title>drm_plane A</title>
<polygon fill="none" stroke="#000000" points="729.5,-125 640.5,-125 640.5,-89 729.5,-89 729.5,-125"/>
<text text-anchor="middle" x="685" y="-103.3" font-family="Times,serif" font-size="14.00" fill="#000000">drm_plane A</text>
</g>
<!-- drm_device&#45;&gt;drm_plane A -->
<g id="edge6" class="edge">
<title>drm_device&#45;&gt;drm_plane A</title>
<path fill="none" stroke="#000000" d="M875.7904,-167.0332C837.8184,-155.0851 781.2072,-137.2721 739.5081,-124.1513"/>
<polygon fill="#000000" stroke="#000000" points="740.3735,-120.7544 729.784,-121.0915 738.2724,-127.4317 740.3735,-120.7544"/>
</g>
<!-- drm_plane B -->
<g id="node9" class="node">
<title>drm_plane B</title>
<polygon fill="none" stroke="#000000" points="856.5,-125 767.5,-125 767.5,-89 856.5,-89 856.5,-125"/>
<text text-anchor="middle" x="812" y="-103.3" font-family="Times,serif" font-size="14.00" fill="#000000">drm_plane B</text>
</g>
<!-- drm_device&#45;&gt;drm_plane B -->
<g id="edge7" class="edge">
<title>drm_device&#45;&gt;drm_plane B</title>
<path fill="none" stroke="#000000" d="M891.0449,-161.9551C877.5412,-152.5667 860.8578,-140.9678 846.3035,-130.8491"/>
<polygon fill="#000000" stroke="#000000" points="848.229,-127.925 838.0204,-125.0904 844.2331,-133.6725 848.229,-127.925"/>
</g>
<!-- drm_crtc -->
<g id="node10" class="node">
<title>drm_crtc</title>
<polygon fill="none" stroke="#000000" points="951,-125 883,-125 883,-89 951,-89 951,-125"/>
<text text-anchor="middle" x="917" y="-103.3" font-family="Times,serif" font-size="14.00" fill="#000000">drm_crtc</text>
</g>
<!-- drm_device&#45;&gt;drm_crtc -->
<g id="edge8" class="edge">
<title>drm_device&#45;&gt;drm_crtc</title>
<path fill="none" stroke="#000000" d="M917,-161.9551C917,-153.8828 917,-144.1764 917,-135.1817"/>
<polygon fill="#000000" stroke="#000000" points="920.5001,-135.0903 917,-125.0904 913.5001,-135.0904 920.5001,-135.0903"/>
</g>
<!-- drm_connector -->
<g id="node11" class="node">
<title>drm_connector</title>
<polygon fill="none" stroke="#000000" points="1084,-125 984,-125 984,-89 1084,-89 1084,-125"/>
<text text-anchor="middle" x="1034" y="-103.3" font-family="Times,serif" font-size="14.00" fill="#000000">drm_connector</text>
</g>
<!-- drm_device&#45;&gt;drm_connector -->
<g id="edge9" class="edge">
<title>drm_device&#45;&gt;drm_connector</title>
<path fill="none" stroke="#000000" d="M945.9214,-161.9551C961.109,-152.479 979.9063,-140.7508 996.2301,-130.5658"/>
<polygon fill="#000000" stroke="#000000" points="998.3745,-133.3533 1005.0059,-125.0904 994.6691,-127.4145 998.3745,-133.3533"/>
</g>
<!-- driver private object -->
<g id="node12" class="node">
<title>driver private object</title>
<polygon fill="none" stroke="#000000" points="1242,-125 1114,-125 1114,-89 1242,-89 1242,-125"/>
<text text-anchor="middle" x="1178" y="-103.3" font-family="Times,serif" font-size="14.00" fill="#000000">driver private object</text>
</g>
<!-- drm_device&#45;&gt;driver private object -->
<g id="edge10" class="edge">
<title>drm_device&#45;&gt;driver private object</title>
<path fill="none" stroke="#000000" d="M958.0684,-168.5134C997.0693,-157.6051 1056.6038,-140.9537 1103.9001,-127.7253"/>
<polygon fill="#000000" stroke="#000000" points="1105.1074,-131.022 1113.7951,-124.9577 1103.2219,-124.2807 1105.1074,-131.022"/>
</g>
<!-- drm_plane_state A -->
<g id="node13" class="node">
<title>drm_plane_state A</title>
<polygon fill="none" stroke="#000000" points="710.5,-52 589.5,-52 589.5,-16 710.5,-16 710.5,-52"/>
<text text-anchor="middle" x="650" y="-30.3" font-family="Times,serif" font-size="14.00" fill="#000000">drm_plane_state A</text>
</g>
<!-- drm_plane A&#45;&gt;drm_plane_state A -->
<g id="edge11" class="edge">
<title>drm_plane A&#45;&gt;drm_plane_state A</title>
<path fill="none" stroke="#000000" d="M676.3483,-88.9551C672.3519,-80.6196 667.5199,-70.5416 663.091,-61.3042"/>
<polygon fill="#000000" stroke="#000000" points="666.1528,-59.5944 658.6735,-52.0904 659.8408,-62.6207 666.1528,-59.5944"/>
</g>
<!-- drm_plane_state B -->
<g id="node14" class="node">
<title>drm_plane_state B</title>
<polygon fill="none" stroke="#000000" points="849,-52 729,-52 729,-16 849,-16 849,-52"/>
<text text-anchor="middle" x="789" y="-30.3" font-family="Times,serif" font-size="14.00" fill="#000000">drm_plane_state B</text>
</g>
<!-- drm_plane B&#45;&gt;drm_plane_state B -->
<g id="edge12" class="edge">
<title>drm_plane B&#45;&gt;drm_plane_state B</title>
<path fill="none" stroke="#000000" d="M806.3146,-88.9551C803.7437,-80.7951 800.6466,-70.9652 797.7868,-61.8887"/>
<polygon fill="#000000" stroke="#000000" points="801.0431,-60.5764 794.6997,-52.0904 794.3666,-62.68 801.0431,-60.5764"/>
</g>
<!-- drm_crtc_state -->
<g id="node15" class="node">
<title>drm_crtc_state</title>
<polygon fill="none" stroke="#000000" points="966.5,-52 867.5,-52 867.5,-16 966.5,-16 966.5,-52"/>
<text text-anchor="middle" x="917" y="-30.3" font-family="Times,serif" font-size="14.00" fill="#000000">drm_crtc_state</text>
</g>
<!-- drm_crtc&#45;&gt;drm_crtc_state -->
<g id="edge13" class="edge">
<title>drm_crtc&#45;&gt;drm_crtc_state</title>
<path fill="none" stroke="#000000" d="M917,-88.9551C917,-80.8828 917,-71.1764 917,-62.1817"/>
<polygon fill="#000000" stroke="#000000" points="920.5001,-62.0903 917,-52.0904 913.5001,-62.0904 920.5001,-62.0903"/>
</g>
<!-- drm_connector_state -->
<g id="node16" class="node">
<title>drm_connector_state</title>
<polygon fill="none" stroke="#000000" points="1115.5,-52 984.5,-52 984.5,-16 1115.5,-16 1115.5,-52"/>
<text text-anchor="middle" x="1050" y="-30.3" font-family="Times,serif" font-size="14.00" fill="#000000">drm_connector_state</text>
</g>
<!-- drm_connector&#45;&gt;drm_connector_state -->
<g id="edge14" class="edge">
<title>drm_connector&#45;&gt;drm_connector_state</title>
<path fill="none" stroke="#000000" d="M1037.9551,-88.9551C1039.7435,-80.7951 1041.898,-70.9652 1043.8874,-61.8887"/>
<polygon fill="#000000" stroke="#000000" points="1047.3128,-62.6079 1046.035,-52.0904 1040.4751,-61.1091 1047.3128,-62.6079"/>
</g>
<!-- driver private state -->
<g id="node17" class="node">
<title>driver private state</title>
<polygon fill="none" stroke="#000000" points="1254,-52 1134,-52 1134,-16 1254,-16 1254,-52"/>
<text text-anchor="middle" x="1194" y="-30.3" font-family="Times,serif" font-size="14.00" fill="#000000">driver private state</text>
</g>
<!-- driver private object&#45;&gt;driver private state -->
<g id="edge15" class="edge">
<title>driver private object&#45;&gt;driver private state</title>
<path fill="none" stroke="#000000" d="M1181.9551,-88.9551C1183.7435,-80.7951 1185.898,-70.9652 1187.8874,-61.8887"/>
<polygon fill="#000000" stroke="#000000" points="1191.3128,-62.6079 1190.035,-52.0904 1184.4751,-61.1091 1191.3128,-62.6079"/>
</g>
</g>
</svg>
