<?xml version="1.0" encoding="UTF-8" standalone="no"?>
<!DOCTYPE svg PUBLIC "-//W3C//DTD SVG 1.1//EN"
 "http://www.w3.org/Graphics/SVG/1.1/DTD/svg11.dtd">
<!-- Generated by graphviz version 2.40.1 (20161225.0304)
 -->
<!-- Title: slave_ppl Pages: 1 -->
<svg width="850pt" height="506pt"
 viewBox="0.00 0.00 850.49 506.00" xmlns="http://www.w3.org/2000/svg" xmlns:xlink="http://www.w3.org/1999/xlink">
<g id="graph0" class="graph" transform="scale(1 1) rotate(0) translate(4 502)">
<title>slave_ppl</title>
<polygon fill="#ffffff" stroke="transparent" points="-4,4 -4,-502 846.4925,-502 846.4925,4 -4,4"/>
<g id="clust2" class="cluster">
<title>cluster_pipeline_slave</title>
<polygon fill="none" stroke="#000000" stroke-dasharray="5,2" points="8,-8 8,-245 376,-245 376,-8 8,-8"/>
<text text-anchor="middle" x="192" y="-229.8" font-family="Times,serif" font-size="14.00" fill="#000000">Slave Pipeline_B</text>
</g>
<g id="clust4" class="cluster">
<title>cluster_pipeline_master</title>
<polygon fill="none" stroke="#000000" stroke-dasharray="5,2" points="154,-253 154,-490 730,-490 730,-253 154,-253"/>
<text text-anchor="middle" x="442" y="-474.8" font-family="Times,serif" font-size="14.00" fill="#000000">Master Pipeline_A</text>
</g>
<!-- Memory -->
<g id="node1" class="node">
<title>Memory</title>
<ellipse fill="none" stroke="#000000" cx="800.2463" cy="-374" rx="42.4939" ry="18"/>
<text text-anchor="middle" x="800.2463" y="-370.3" font-family="Times,serif" font-size="14.00" fill="#000000">Memory</text>
</g>
<!-- Monitor -->
<g id="node2" class="node">
<title>Monitor</title>
<ellipse fill="none" stroke="#000000" cx="800.2463" cy="-320" rx="40.0939" ry="18"/>
<text text-anchor="middle" x="800.2463" y="-316.3" font-family="Times,serif" font-size="14.00" fill="#000000">Monitor</text>
</g>
<!-- Slave.Scaler&#45;0 -->
<g id="node3" class="node">
<title>Slave.Scaler&#45;0</title>
<polygon fill="none" stroke="#000000" stroke-dasharray="5,2" points="239,-183 144,-183 144,-147 239,-147 239,-183"/>
<text text-anchor="middle" x="191.5" y="-161.3" font-family="Times,serif" font-size="14.00" fill="#000000">Slave.Scaler&#45;0</text>
</g>
<!-- Slave.Compiz -->
<g id="node9" class="node">
<title>Slave.Compiz</title>
<polygon fill="#d3d3d3" stroke="#000000" points="368,-146 275,-146 275,-110 368,-110 368,-146"/>
<text text-anchor="middle" x="321.5" y="-124.3" font-family="Times,serif" font-size="14.00" fill="#000000">Slave.Compiz</text>
</g>
<!-- Slave.Scaler&#45;0&#45;&gt;Slave.Compiz -->
<g id="edge9" class="edge">
<title>Slave.Scaler&#45;0&#45;&gt;Slave.Compiz</title>
<path fill="none" stroke="#000000" d="M239.169,-151.4327C247.593,-149.0351 256.436,-146.5182 265.0735,-144.0599"/>
<polygon fill="#000000" stroke="#000000" points="266.0449,-147.4225 274.7048,-141.3186 264.1286,-140.6898 266.0449,-147.4225"/>
</g>
<!-- Slave.Scaler&#45;1 -->
<g id="node4" class="node">
<title>Slave.Scaler&#45;1</title>
<polygon fill="none" stroke="#000000" stroke-dasharray="5,2" points="239,-89 144,-89 144,-53 239,-53 239,-89"/>
<text text-anchor="middle" x="191.5" y="-67.3" font-family="Times,serif" font-size="14.00" fill="#000000">Slave.Scaler&#45;1</text>
</g>
<!-- Slave.Scaler&#45;1&#45;&gt;Slave.Compiz -->
<g id="edge10" class="edge">
<title>Slave.Scaler&#45;1&#45;&gt;Slave.Compiz</title>
<path fill="none" stroke="#000000" d="M232.6328,-89.0352C244.7253,-94.3372 258.0976,-100.2005 270.7179,-105.734"/>
<polygon fill="#000000" stroke="#000000" points="269.6247,-109.0763 280.1886,-109.8865 272.4357,-102.6655 269.6247,-109.0763"/>
</g>
<!-- Slave.Layer&#45;0 -->
<g id="node5" class="node">
<title>Slave.Layer&#45;0</title>
<polygon fill="#d3d3d3" stroke="#000000" points="108,-214 16,-214 16,-178 108,-178 108,-214"/>
<text text-anchor="middle" x="62" y="-192.3" font-family="Times,serif" font-size="14.00" fill="#000000">Slave.Layer&#45;0</text>
</g>
<!-- Slave.Layer&#45;0&#45;&gt;Slave.Scaler&#45;0 -->
<g id="edge1" class="edge">
<title>Slave.Layer&#45;0&#45;&gt;Slave.Scaler&#45;0</title>
<path fill="none" stroke="#000000" d="M108.0215,-184.9833C116.4728,-182.9602 125.3898,-180.8256 134.1254,-178.7345"/>
<polygon fill="#000000" stroke="#000000" points="134.9662,-182.1322 143.8766,-176.4002 133.3365,-175.3245 134.9662,-182.1322"/>
</g>
<!-- Slave.Layer&#45;0&#45;&gt;Slave.Compiz -->
<g id="edge5" class="edge">
<title>Slave.Layer&#45;0&#45;&gt;Slave.Compiz</title>
<path fill="none" stroke="#000000" d="M108.1563,-202.7006C144.7336,-206.1996 196.5659,-207.0673 239,-192 261.2566,-184.0972 282.2279,-167.6612 297.4572,-153.4247"/>
<polygon fill="#000000" stroke="#000000" points="300.1285,-155.7099 304.8741,-146.2373 295.2571,-150.6829 300.1285,-155.7099"/>
</g>
<!-- Slave.Layer&#45;1 -->
<g id="node6" class="node">
<title>Slave.Layer&#45;1</title>
<polygon fill="#d3d3d3" stroke="#000000" points="108,-160 16,-160 16,-124 108,-124 108,-160"/>
<text text-anchor="middle" x="62" y="-138.3" font-family="Times,serif" font-size="14.00" fill="#000000">Slave.Layer&#45;1</text>
</g>
<!-- Slave.Layer&#45;1&#45;&gt;Slave.Scaler&#45;0 -->
<g id="edge2" class="edge">
<title>Slave.Layer&#45;1&#45;&gt;Slave.Scaler&#45;0</title>
<path fill="none" stroke="#000000" d="M108.0215,-150.1737C116.3819,-151.6586 125.1981,-153.2244 133.8436,-154.7599"/>
<polygon fill="#000000" stroke="#000000" points="133.4186,-158.2391 143.8766,-156.5418 134.6428,-151.3469 133.4186,-158.2391"/>
</g>
<!-- Slave.Layer&#45;1&#45;&gt;Slave.Compiz -->
<g id="edge6" class="edge">
<title>Slave.Layer&#45;1&#45;&gt;Slave.Compiz</title>
<path fill="none" stroke="#000000" d="M108.0944,-139.5132C151.9217,-137.1487 217.9484,-133.5866 264.9405,-131.0514"/>
<polygon fill="#000000" stroke="#000000" points="265.164,-134.5445 274.9609,-130.5108 264.7869,-127.5547 265.164,-134.5445"/>
</g>
<!-- Slave.Layer&#45;2 -->
<g id="node7" class="node">
<title>Slave.Layer&#45;2</title>
<polygon fill="#d3d3d3" stroke="#000000" points="108,-106 16,-106 16,-70 108,-70 108,-106"/>
<text text-anchor="middle" x="62" y="-84.3" font-family="Times,serif" font-size="14.00" fill="#000000">Slave.Layer&#45;2</text>
</g>
<!-- Slave.Layer&#45;2&#45;&gt;Slave.Scaler&#45;1 -->
<g id="edge3" class="edge">
<title>Slave.Layer&#45;2&#45;&gt;Slave.Scaler&#45;1</title>
<path fill="none" stroke="#000000" d="M108.0215,-81.9586C116.3819,-80.8611 125.1981,-79.7037 133.8436,-78.5688"/>
<polygon fill="#000000" stroke="#000000" points="134.4172,-82.0236 143.8766,-77.2517 133.5061,-75.0832 134.4172,-82.0236"/>
</g>
<!-- Slave.Layer&#45;2&#45;&gt;Slave.Compiz -->
<g id="edge7" class="edge">
<title>Slave.Layer&#45;2&#45;&gt;Slave.Compiz</title>
<path fill="none" stroke="#000000" d="M108.0944,-95.1051C151.9217,-101.8608 217.9484,-112.0383 264.9405,-119.2818"/>
<polygon fill="#000000" stroke="#000000" points="264.5444,-122.762 274.9609,-120.8263 265.6109,-115.8437 264.5444,-122.762"/>
</g>
<!-- Slave.Layer&#45;3 -->
<g id="node8" class="node">
<title>Slave.Layer&#45;3</title>
<polygon fill="#d3d3d3" stroke="#000000" points="108,-52 16,-52 16,-16 108,-16 108,-52"/>
<text text-anchor="middle" x="62" y="-30.3" font-family="Times,serif" font-size="14.00" fill="#000000">Slave.Layer&#45;3</text>
</g>
<!-- Slave.Layer&#45;3&#45;&gt;Slave.Scaler&#45;1 -->
<g id="edge4" class="edge">
<title>Slave.Layer&#45;3&#45;&gt;Slave.Scaler&#45;1</title>
<path fill="none" stroke="#000000" d="M108.0215,-47.149C116.4728,-49.5637 125.3898,-52.1114 134.1254,-54.6073"/>
<polygon fill="#000000" stroke="#000000" points="133.2998,-58.0114 143.8766,-57.3933 135.2229,-51.2807 133.2998,-58.0114"/>
</g>
<!-- Slave.Layer&#45;3&#45;&gt;Slave.Compiz -->
<g id="edge8" class="edge">
<title>Slave.Layer&#45;3&#45;&gt;Slave.Compiz</title>
<path fill="none" stroke="#000000" d="M108.149,-27.7697C145.189,-24.7986 197.6487,-25.2641 239,-44 266.085,-56.272 289.028,-81.7213 303.7902,-101.4091"/>
<polygon fill="#000000" stroke="#000000" points="301.097,-103.6577 309.7934,-109.7096 306.7691,-99.5555 301.097,-103.6577"/>
</g>
<!-- Compiz -->
<g id="node17" class="node">
<title>Compiz</title>
<polygon fill="#d3d3d3" stroke="#000000" points="463,-365 404,-365 404,-329 463,-329 463,-365"/>
<text text-anchor="middle" x="433.5" y="-343.3" font-family="Times,serif" font-size="14.00" fill="#000000">Compiz</text>
</g>
<!-- Slave.Compiz&#45;&gt;Compiz -->
<g id="edge15" class="edge">
<title>Slave.Compiz&#45;&gt;Compiz</title>
<path fill="none" stroke="#000000" d="M330.8564,-146.2951C350.5878,-184.8771 396.5441,-274.7381 419.6768,-319.9707"/>
<polygon fill="#000000" stroke="#000000" points="416.5795,-321.6014 424.249,-328.911 422.8118,-318.414 416.5795,-321.6014"/>
</g>
<!-- Scaler&#45;0 -->
<g id="node10" class="node">
<title>Scaler&#45;0</title>
<polygon fill="none" stroke="#000000" stroke-dasharray="5,2" points="352,-422 291,-422 291,-386 352,-386 352,-422"/>
<text text-anchor="middle" x="321.5" y="-400.3" font-family="Times,serif" font-size="14.00" fill="#000000">Scaler&#45;0</text>
</g>
<!-- Scaler&#45;0&#45;&gt;Compiz -->
<g id="edge20" class="edge">
<title>Scaler&#45;0&#45;&gt;Compiz</title>
<path fill="none" stroke="#000000" d="M352.1045,-388.4245C365.1552,-381.7826 380.5406,-373.9526 394.4016,-366.8983"/>
<polygon fill="#000000" stroke="#000000" points="396.3819,-369.8177 403.7067,-362.1627 393.2069,-363.5791 396.3819,-369.8177"/>
</g>
<!-- Scaler&#45;1 -->
<g id="node11" class="node">
<title>Scaler&#45;1</title>
<polygon fill="none" stroke="#000000" stroke-dasharray="5,2" points="352,-328 291,-328 291,-292 352,-292 352,-328"/>
<text text-anchor="middle" x="321.5" y="-306.3" font-family="Times,serif" font-size="14.00" fill="#000000">Scaler&#45;1</text>
</g>
<!-- Scaler&#45;1&#45;&gt;Compiz -->
<g id="edge21" class="edge">
<title>Scaler&#45;1&#45;&gt;Compiz</title>
<path fill="none" stroke="#000000" d="M352.1045,-320.1104C365.0297,-324.3804 380.2449,-329.4068 394.0013,-333.9513"/>
<polygon fill="#000000" stroke="#000000" points="393.1135,-337.344 403.7067,-337.1576 395.3093,-330.6973 393.1135,-337.344"/>
</g>
<!-- Scaler&#45;0/1 -->
<g id="node12" class="node">
<title>Scaler&#45;0/1</title>
<polygon fill="none" stroke="#000000" stroke-dasharray="5,2" points="570,-392 499,-392 499,-356 570,-356 570,-392"/>
<text text-anchor="middle" x="534.5" y="-370.3" font-family="Times,serif" font-size="14.00" fill="#000000">Scaler&#45;0/1</text>
</g>
<!-- Wb_layer -->
<g id="node18" class="node">
<title>Wb_layer</title>
<polygon fill="#d3d3d3" stroke="#000000" points="699.5,-392 628.5,-392 628.5,-356 699.5,-356 699.5,-392"/>
<text text-anchor="middle" x="664" y="-370.3" font-family="Times,serif" font-size="14.00" fill="#000000">Wb_layer</text>
</g>
<!-- Scaler&#45;0/1&#45;&gt;Wb_layer -->
<g id="edge23" class="edge">
<title>Scaler&#45;0/1&#45;&gt;Wb_layer</title>
<path fill="none" stroke="#000000" d="M570.2292,-374C585.0913,-374 602.5252,-374 618.3024,-374"/>
<polygon fill="#000000" stroke="#000000" points="618.3874,-377.5001 628.3874,-374 618.3873,-370.5001 618.3874,-377.5001"/>
</g>
<!-- Layer&#45;0 -->
<g id="node13" class="node">
<title>Layer&#45;0</title>
<polygon fill="#d3d3d3" stroke="#000000" points="221,-459 162,-459 162,-423 221,-423 221,-459"/>
<text text-anchor="middle" x="191.5" y="-437.3" font-family="Times,serif" font-size="14.00" fill="#000000">Layer&#45;0</text>
</g>
<!-- Layer&#45;0&#45;&gt;Scaler&#45;0 -->
<g id="edge11" class="edge">
<title>Layer&#45;0&#45;&gt;Scaler&#45;0</title>
<path fill="none" stroke="#000000" d="M221.3246,-432.5115C239.0707,-427.4607 261.8224,-420.9852 281.157,-415.4822"/>
<polygon fill="#000000" stroke="#000000" points="282.2518,-418.8097 290.9117,-412.7059 280.3355,-412.0771 282.2518,-418.8097"/>
</g>
<!-- Layer&#45;0&#45;&gt;Compiz -->
<g id="edge16" class="edge">
<title>Layer&#45;0&#45;&gt;Compiz</title>
<path fill="none" stroke="#000000" d="M221.188,-447.0013C259.5996,-453.1486 327.3506,-458.3621 376,-431 398.0061,-418.623 413.358,-393.9001 422.6292,-374.4653"/>
<polygon fill="#000000" stroke="#000000" points="425.9074,-375.7089 426.8104,-365.1526 419.5215,-372.8418 425.9074,-375.7089"/>
</g>
<!-- Layer&#45;1 -->
<g id="node14" class="node">
<title>Layer&#45;1</title>
<polygon fill="#d3d3d3" stroke="#000000" points="221,-405 162,-405 162,-369 221,-369 221,-405"/>
<text text-anchor="middle" x="191.5" y="-383.3" font-family="Times,serif" font-size="14.00" fill="#000000">Layer&#45;1</text>
</g>
<!-- Layer&#45;1&#45;&gt;Scaler&#45;0 -->
<g id="edge12" class="edge">
<title>Layer&#45;1&#45;&gt;Scaler&#45;0</title>
<path fill="none" stroke="#000000" d="M221.3246,-390.9001C238.9893,-393.2101 261.6138,-396.1687 280.8907,-398.6896"/>
<polygon fill="#000000" stroke="#000000" points="280.5422,-402.1737 290.9117,-400 281.45,-395.2328 280.5422,-402.1737"/>
</g>
<!-- Layer&#45;1&#45;&gt;Compiz -->
<g id="edge17" class="edge">
<title>Layer&#45;1&#45;&gt;Compiz</title>
<path fill="none" stroke="#000000" d="M221.174,-382.0952C264.5628,-374.9235 345.4082,-361.5606 393.8499,-353.5537"/>
<polygon fill="#000000" stroke="#000000" points="394.6669,-356.9663 403.9622,-351.8823 393.5253,-350.06 394.6669,-356.9663"/>
</g>
<!-- Layer&#45;2 -->
<g id="node15" class="node">
<title>Layer&#45;2</title>
<polygon fill="#d3d3d3" stroke="#000000" points="221,-351 162,-351 162,-315 221,-315 221,-351"/>
<text text-anchor="middle" x="191.5" y="-329.3" font-family="Times,serif" font-size="14.00" fill="#000000">Layer&#45;2</text>
</g>
<!-- Layer&#45;2&#45;&gt;Scaler&#45;1 -->
<g id="edge13" class="edge">
<title>Layer&#45;2&#45;&gt;Scaler&#45;1</title>
<path fill="none" stroke="#000000" d="M221.3246,-327.7233C238.9893,-324.5981 261.6138,-320.5953 280.8907,-317.1847"/>
<polygon fill="#000000" stroke="#000000" points="281.6744,-320.6005 290.9117,-315.4118 280.4548,-313.7076 281.6744,-320.6005"/>
</g>
<!-- Layer&#45;2&#45;&gt;Compiz -->
<g id="edge18" class="edge">
<title>Layer&#45;2&#45;&gt;Compiz</title>
<path fill="none" stroke="#000000" d="M221.174,-334.7167C264.5628,-337.2268 345.4082,-341.9038 393.8499,-344.7062"/>
<polygon fill="#000000" stroke="#000000" points="393.7768,-348.2077 403.9622,-345.2912 394.1811,-341.2194 393.7768,-348.2077"/>
</g>
<!-- Layer&#45;3 -->
<g id="node16" class="node">
<title>Layer&#45;3</title>
<polygon fill="#d3d3d3" stroke="#000000" points="221,-297 162,-297 162,-261 221,-261 221,-297"/>
<text text-anchor="middle" x="191.5" y="-275.3" font-family="Times,serif" font-size="14.00" fill="#000000">Layer&#45;3</text>
</g>
<!-- Layer&#45;3&#45;&gt;Scaler&#45;1 -->
<g id="edge14" class="edge">
<title>Layer&#45;3&#45;&gt;Scaler&#45;1</title>
<path fill="none" stroke="#000000" d="M221.3246,-286.112C239.0707,-290.3438 261.8224,-295.7692 281.157,-300.3798"/>
<polygon fill="#000000" stroke="#000000" points="280.3725,-303.7907 290.9117,-302.7059 281.9963,-296.9817 280.3725,-303.7907"/>
</g>
<!-- Layer&#45;3&#45;&gt;Compiz -->
<g id="edge19" class="edge">
<title>Layer&#45;3&#45;&gt;Compiz</title>
<path fill="none" stroke="#000000" d="M221.2207,-272.6981C259.0773,-266.182 325.6247,-259.8809 376,-283 393.2005,-290.894 407.46,-306.6514 417.4762,-320.5547"/>
<polygon fill="#000000" stroke="#000000" points="414.6292,-322.5922 423.1528,-328.8851 420.4139,-318.6504 414.6292,-322.5922"/>
</g>
<!-- Compiz&#45;&gt;Scaler&#45;0/1 -->
<g id="edge22" class="edge">
<title>Compiz&#45;&gt;Scaler&#45;0/1</title>
<path fill="none" stroke="#000000" d="M463.2571,-354.9549C471.3744,-357.1248 480.3571,-359.5261 489.131,-361.8717"/>
<polygon fill="#000000" stroke="#000000" points="488.3265,-365.2794 498.8912,-364.4808 490.1343,-358.5169 488.3265,-365.2794"/>
</g>
<!-- Improc -->
<g id="node19" class="node">
<title>Improc</title>
<polygon fill="#d3d3d3" stroke="#000000" points="562.5,-338 506.5,-338 506.5,-302 562.5,-302 562.5,-338"/>
<text text-anchor="middle" x="534.5" y="-316.3" font-family="Times,serif" font-size="14.00" fill="#000000">Improc</text>
</g>
<!-- Compiz&#45;&gt;Improc -->
<g id="edge24" class="edge">
<title>Compiz&#45;&gt;Improc</title>
<path fill="none" stroke="#000000" d="M463.2571,-339.0451C473.6819,-336.2583 485.5341,-333.0899 496.5384,-330.1482"/>
<polygon fill="#000000" stroke="#000000" points="497.5839,-333.4917 506.3407,-327.5277 495.776,-326.7291 497.5839,-333.4917"/>
</g>
<!-- Wb_layer&#45;&gt;Memory -->
<g id="edge26" class="edge">
<title>Wb_layer&#45;&gt;Memory</title>
<path fill="none" stroke="#000000" d="M699.7971,-374C714.4138,-374 731.6152,-374 747.6132,-374"/>
<polygon fill="#000000" stroke="#000000" points="747.9131,-377.5001 757.913,-374 747.913,-370.5001 747.9131,-377.5001"/>
</g>
<!-- Timing Controller -->
<g id="node20" class="node">
<title>Timing Controller</title>
<polygon fill="#d3d3d3" stroke="#000000" points="722,-338 606,-338 606,-302 722,-302 722,-338"/>
<text text-anchor="middle" x="664" y="-316.3" font-family="Times,serif" font-size="14.00" fill="#000000">Timing Controller</text>
</g>
<!-- Improc&#45;&gt;Timing Controller -->
<g id="edge25" class="edge">
<title>Improc&#45;&gt;Timing Controller</title>
<path fill="none" stroke="#000000" d="M562.5996,-320C572.4381,-320 583.9598,-320 595.6387,-320"/>
<polygon fill="#000000" stroke="#000000" points="595.9042,-323.5001 605.9041,-320 595.9041,-316.5001 595.9042,-323.5001"/>
</g>
<!-- Timing Controller&#45;&gt;Monitor -->
<g id="edge27" class="edge">
<title>Timing Controller&#45;&gt;Monitor</title>
<path fill="none" stroke="#000000" d="M722.1759,-320C731.2212,-320 740.5057,-320 749.3728,-320"/>
<polygon fill="#000000" stroke="#000000" points="749.551,-323.5001 759.551,-320 749.551,-316.5001 749.551,-323.5001"/>
</g>
</g>
</svg>
