<?xml version="1.0" encoding="UTF-8" standalone="no"?>
<!DOCTYPE svg PUBLIC "-//W3C//DTD SVG 1.1//EN"
 "http://www.w3.org/Graphics/SVG/1.1/DTD/svg11.dtd">
<!-- Generated by graphviz version 2.40.1 (20161225.0304)
 -->
<!-- Title: Output Pipeline Pages: 1 -->
<svg width="510pt" height="362pt"
 viewBox="0.00 0.00 510.00 362.00" xmlns="http://www.w3.org/2000/svg" xmlns:xlink="http://www.w3.org/1999/xlink">
<g id="graph0" class="graph" transform="scale(1 1) rotate(0) translate(4 358)">
<title>Output Pipeline</title>
<polygon fill="#ffffff" stroke="transparent" points="-4,4 -4,-358 506,-358 506,4 -4,4"/>
<g id="clust2" class="cluster">
<title>cluster_internal</title>
<polygon fill="none" stroke="#000000" stroke-dasharray="5,2" points="119,-91 119,-310 479,-310 479,-91 119,-91"/>
<text text-anchor="middle" x="299" y="-294.8" font-family="Times,serif" font-size="14.00" fill="#000000">Internal Pipeline</text>
</g>
<g id="clust5" class="cluster">
<title>cluster_output</title>
<polygon fill="none" stroke="#000000" stroke-dasharray="5,2" points="8,-8 8,-83 494,-83 494,-8 8,-8"/>
<text text-anchor="middle" x="251" y="-67.8" font-family="Times,serif" font-size="14.00" fill="#000000">Outputs</text>
</g>
<!-- drm_crtc -->
<g id="node1" class="node">
<title>drm_crtc</title>
<polygon fill="#d3d3d3" stroke="#000000" points="332,-354 264,-354 264,-318 332,-318 332,-354"/>
<text text-anchor="middle" x="298" y="-332.3" font-family="Times,serif" font-size="14.00" fill="#000000">drm_crtc</text>
</g>
<!-- drm_encoder A -->
<g id="node2" class="node">
<title>drm_encoder A</title>
<polygon fill="#d3d3d3" stroke="#000000" points="470.5,-279 367.5,-279 367.5,-243 470.5,-243 470.5,-279"/>
<text text-anchor="middle" x="419" y="-257.3" font-family="Times,serif" font-size="14.00" fill="#000000">drm_encoder A</text>
</g>
<!-- drm_crtc&#45;&gt;drm_encoder A -->
<g id="edge4" class="edge">
<title>drm_crtc&#45;&gt;drm_encoder A</title>
<path fill="none" stroke="#000000" d="M332.1148,-323.0954C340.7882,-319.3116 349.9318,-314.8673 358,-310 369.564,-303.0237 381.3464,-294.0756 391.4334,-285.7394"/>
<polygon fill="#000000" stroke="#000000" points="393.7487,-288.3651 399.1229,-279.2344 389.2278,-283.0208 393.7487,-288.3651"/>
</g>
<!-- drm_encoder B -->
<g id="node3" class="node">
<title>drm_encoder B</title>
<polygon fill="#d3d3d3" stroke="#000000" points="349,-279 247,-279 247,-243 349,-243 349,-279"/>
<text text-anchor="middle" x="298" y="-257.3" font-family="Times,serif" font-size="14.00" fill="#000000">drm_encoder B</text>
</g>
<!-- drm_crtc&#45;&gt;drm_encoder B -->
<g id="edge5" class="edge">
<title>drm_crtc&#45;&gt;drm_encoder B</title>
<path fill="none" stroke="#000000" d="M298,-317.8446C298,-309.3401 298,-299.0076 298,-289.4964"/>
<polygon fill="#000000" stroke="#000000" points="301.5001,-289.2481 298,-279.2482 294.5001,-289.2482 301.5001,-289.2481"/>
</g>
<!-- drm_encoder C -->
<g id="node4" class="node">
<title>drm_encoder C</title>
<polygon fill="#d3d3d3" stroke="#000000" points="229,-279 127,-279 127,-243 229,-243 229,-279"/>
<text text-anchor="middle" x="178" y="-257.3" font-family="Times,serif" font-size="14.00" fill="#000000">drm_encoder C</text>
</g>
<!-- drm_crtc&#45;&gt;drm_encoder C -->
<g id="edge6" class="edge">
<title>drm_crtc&#45;&gt;drm_encoder C</title>
<path fill="none" stroke="#000000" d="M263.8582,-323.14C255.1851,-319.3556 246.0485,-314.8999 238,-310 226.4882,-302.9916 214.795,-293.9617 204.8265,-285.5668"/>
<polygon fill="#000000" stroke="#000000" points="207.0963,-282.9026 197.238,-279.0212 202.5241,-288.2031 207.0963,-282.9026"/>
</g>
<!-- drm_connector A -->
<g id="node8" class="node">
<title>drm_connector A</title>
<polygon fill="none" stroke="#000000" points="485.5,-52 372.5,-52 372.5,-16 485.5,-16 485.5,-52"/>
<text text-anchor="middle" x="429" y="-30.3" font-family="Times,serif" font-size="14.00" fill="#000000">drm_connector A</text>
</g>
<!-- drm_encoder A&#45;&gt;drm_connector A -->
<g id="edge7" class="edge">
<title>drm_encoder A&#45;&gt;drm_connector A</title>
<path fill="none" stroke="#000000" d="M419.8014,-242.8074C421.5385,-203.3751 425.6617,-109.7785 427.7467,-62.4496"/>
<polygon fill="#000000" stroke="#000000" points="431.2512,-62.4237 428.1947,-52.2793 424.2579,-62.1155 431.2512,-62.4237"/>
</g>
<!-- drm_bridge B -->
<g id="node5" class="node">
<title>drm_bridge B</title>
<polygon fill="#d3d3d3" stroke="#000000" points="345.5,-207 250.5,-207 250.5,-171 345.5,-171 345.5,-207"/>
<text text-anchor="middle" x="298" y="-185.3" font-family="Times,serif" font-size="14.00" fill="#000000">drm_bridge B</text>
</g>
<!-- drm_encoder B&#45;&gt;drm_bridge B -->
<g id="edge1" class="edge">
<title>drm_encoder B&#45;&gt;drm_bridge B</title>
<path fill="none" stroke="#000000" d="M298,-242.8314C298,-235.131 298,-225.9743 298,-217.4166"/>
<polygon fill="#000000" stroke="#000000" points="301.5001,-217.4132 298,-207.4133 294.5001,-217.4133 301.5001,-217.4132"/>
</g>
<!-- drm_bridge C1 -->
<g id="node6" class="node">
<title>drm_bridge C1</title>
<polygon fill="#d3d3d3" stroke="#000000" points="228.5,-207 127.5,-207 127.5,-171 228.5,-171 228.5,-207"/>
<text text-anchor="middle" x="178" y="-185.3" font-family="Times,serif" font-size="14.00" fill="#000000">drm_bridge C1</text>
</g>
<!-- drm_encoder C&#45;&gt;drm_bridge C1 -->
<g id="edge2" class="edge">
<title>drm_encoder C&#45;&gt;drm_bridge C1</title>
<path fill="none" stroke="#000000" d="M178,-242.8314C178,-235.131 178,-225.9743 178,-217.4166"/>
<polygon fill="#000000" stroke="#000000" points="181.5001,-217.4132 178,-207.4133 174.5001,-217.4133 181.5001,-217.4132"/>
</g>
<!-- drm_connector B -->
<g id="node9" class="node">
<title>drm_connector B</title>
<polygon fill="none" stroke="#000000" points="354.5,-52 241.5,-52 241.5,-16 354.5,-16 354.5,-52"/>
<text text-anchor="middle" x="298" y="-30.3" font-family="Times,serif" font-size="14.00" fill="#000000">drm_connector B</text>
</g>
<!-- drm_bridge B&#45;&gt;drm_connector B -->
<g id="edge8" class="edge">
<title>drm_bridge B&#45;&gt;drm_connector B</title>
<path fill="none" stroke="#000000" d="M298,-170.9162C298,-144.3422 298,-94.4757 298,-62.819"/>
<polygon fill="#000000" stroke="#000000" points="301.5001,-62.4491 298,-52.4491 294.5001,-62.4491 301.5001,-62.4491"/>
</g>
<!-- drm_bridge C2 -->
<g id="node7" class="node">
<title>drm_bridge C2</title>
<polygon fill="#d3d3d3" stroke="#000000" points="228.5,-135 127.5,-135 127.5,-99 228.5,-99 228.5,-135"/>
<text text-anchor="middle" x="178" y="-113.3" font-family="Times,serif" font-size="14.00" fill="#000000">drm_bridge C2</text>
</g>
<!-- drm_bridge C1&#45;&gt;drm_bridge C2 -->
<g id="edge3" class="edge">
<title>drm_bridge C1&#45;&gt;drm_bridge C2</title>
<path fill="none" stroke="#000000" d="M178,-170.8314C178,-163.131 178,-153.9743 178,-145.4166"/>
<polygon fill="#000000" stroke="#000000" points="181.5001,-145.4132 178,-135.4133 174.5001,-145.4133 181.5001,-145.4132"/>
</g>
<!-- drm_connector C -->
<g id="node10" class="node">
<title>drm_connector C</title>
<polygon fill="none" stroke="#000000" points="223.5,-52 110.5,-52 110.5,-16 223.5,-16 223.5,-52"/>
<text text-anchor="middle" x="167" y="-30.3" font-family="Times,serif" font-size="14.00" fill="#000000">drm_connector C</text>
</g>
<!-- drm_bridge C2&#45;&gt;drm_connector C -->
<g id="edge9" class="edge">
<title>drm_bridge C2&#45;&gt;drm_connector C</title>
<path fill="none" stroke="#000000" d="M175.6132,-98.9902C174.1959,-88.2963 172.3674,-74.4994 170.76,-62.3706"/>
<polygon fill="#000000" stroke="#000000" points="174.2037,-61.7147 169.4202,-52.2612 167.2644,-62.6344 174.2037,-61.7147"/>
</g>
<!-- drm_panel -->
<g id="node11" class="node">
<title>drm_panel</title>
<polygon fill="none" stroke="#000000" points="92,-52 16,-52 16,-16 92,-16 92,-52"/>
<text text-anchor="middle" x="54" y="-30.3" font-family="Times,serif" font-size="14.00" fill="#000000">drm_panel</text>
</g>
</g>
</svg>
