<?xml version="1.0" encoding="UTF-8" standalone="no"?>
<!DOCTYPE svg PUBLIC "-//W3C//DTD SVG 1.1//EN"
 "http://www.w3.org/Graphics/SVG/1.1/DTD/svg11.dtd">
<!-- Generated by graphviz version 2.40.1 (20161225.0304)
 -->
<!-- Title: single_ppl Pages: 1 -->
<svg width="654pt" height="238pt"
 viewBox="0.00 0.00 654.49 238.00" xmlns="http://www.w3.org/2000/svg" xmlns:xlink="http://www.w3.org/1999/xlink">
<g id="graph0" class="graph" transform="scale(1 1) rotate(0) translate(4 234)">
<title>single_ppl</title>
<polygon fill="#ffffff" stroke="transparent" points="-4,4 -4,-234 650.4925,-234 650.4925,4 -4,4"/>
<g id="clust2" class="cluster">
<title>cluster_pipeline</title>
<polygon fill="none" stroke="#000000" stroke-dasharray="5,2" points="8,-8 8,-222 534,-222 534,-8 8,-8"/>
</g>
<!-- Memory -->
<g id="node1" class="node">
<title>Memory</title>
<ellipse fill="none" stroke="#000000" cx="604.2463" cy="-142" rx="42.4939" ry="18"/>
<text text-anchor="middle" x="604.2463" y="-138.3" font-family="Times,serif" font-size="14.00" fill="#000000">Memory</text>
</g>
<!-- Monitor -->
<g id="node2" class="node">
<title>Monitor</title>
<ellipse fill="none" stroke="#000000" cx="604.2463" cy="-88" rx="40.0939" ry="18"/>
<text text-anchor="middle" x="604.2463" y="-84.3" font-family="Times,serif" font-size="14.00" fill="#000000">Monitor</text>
</g>
<!-- Scaler&#45;0 -->
<g id="node3" class="node">
<title>Scaler&#45;0</title>
<polygon fill="none" stroke="#000000" stroke-dasharray="5,2" points="172,-180 111,-180 111,-144 172,-144 172,-180"/>
<text text-anchor="middle" x="141.5" y="-158.3" font-family="Times,serif" font-size="14.00" fill="#000000">Scaler&#45;0</text>
</g>
<!-- Compiz -->
<g id="node10" class="node">
<title>Compiz</title>
<polygon fill="#d3d3d3" stroke="#000000" points="267,-133 208,-133 208,-97 267,-97 267,-133"/>
<text text-anchor="middle" x="237.5" y="-111.3" font-family="Times,serif" font-size="14.00" fill="#000000">Compiz</text>
</g>
<!-- Scaler&#45;0&#45;&gt;Compiz -->
<g id="edge9" class="edge">
<title>Scaler&#45;0&#45;&gt;Compiz</title>
<path fill="none" stroke="#000000" d="M172.1389,-146.9997C180.61,-142.8524 189.9148,-138.2969 198.7804,-133.9565"/>
<polygon fill="#000000" stroke="#000000" points="200.3647,-137.0779 207.807,-129.5372 197.2866,-130.7909 200.3647,-137.0779"/>
</g>
<!-- Scaler&#45;1 -->
<g id="node4" class="node">
<title>Scaler&#45;1</title>
<polygon fill="none" stroke="#000000" stroke-dasharray="5,2" points="172,-86 111,-86 111,-50 172,-50 172,-86"/>
<text text-anchor="middle" x="141.5" y="-64.3" font-family="Times,serif" font-size="14.00" fill="#000000">Scaler&#45;1</text>
</g>
<!-- Scaler&#45;1&#45;&gt;Compiz -->
<g id="edge10" class="edge">
<title>Scaler&#45;1&#45;&gt;Compiz</title>
<path fill="none" stroke="#000000" d="M172.1389,-83.0003C180.61,-87.1476 189.9148,-91.7031 198.7804,-96.0435"/>
<polygon fill="#000000" stroke="#000000" points="197.2866,-99.2091 207.807,-100.4628 200.3647,-92.9221 197.2866,-99.2091"/>
</g>
<!-- Scaler&#45;0/1 -->
<g id="node5" class="node">
<title>Scaler&#45;0/1</title>
<polygon fill="none" stroke="#000000" stroke-dasharray="5,2" points="374,-160 303,-160 303,-124 374,-124 374,-160"/>
<text text-anchor="middle" x="338.5" y="-138.3" font-family="Times,serif" font-size="14.00" fill="#000000">Scaler&#45;0/1</text>
</g>
<!-- Wb_layer -->
<g id="node11" class="node">
<title>Wb_layer</title>
<polygon fill="#d3d3d3" stroke="#000000" points="503.5,-160 432.5,-160 432.5,-124 503.5,-124 503.5,-160"/>
<text text-anchor="middle" x="468" y="-138.3" font-family="Times,serif" font-size="14.00" fill="#000000">Wb_layer</text>
</g>
<!-- Scaler&#45;0/1&#45;&gt;Wb_layer -->
<g id="edge12" class="edge">
<title>Scaler&#45;0/1&#45;&gt;Wb_layer</title>
<path fill="none" stroke="#000000" d="M374.2292,-142C389.0913,-142 406.5252,-142 422.3024,-142"/>
<polygon fill="#000000" stroke="#000000" points="422.3874,-145.5001 432.3874,-142 422.3873,-138.5001 422.3874,-145.5001"/>
</g>
<!-- Layer&#45;0 -->
<g id="node6" class="node">
<title>Layer&#45;0</title>
<polygon fill="#d3d3d3" stroke="#000000" points="75,-214 16,-214 16,-178 75,-178 75,-214"/>
<text text-anchor="middle" x="45.5" y="-192.3" font-family="Times,serif" font-size="14.00" fill="#000000">Layer&#45;0</text>
</g>
<!-- Layer&#45;0&#45;&gt;Scaler&#45;0 -->
<g id="edge1" class="edge">
<title>Layer&#45;0&#45;&gt;Scaler&#45;0</title>
<path fill="none" stroke="#000000" d="M75.0865,-185.5214C83.3322,-182.6011 92.4324,-179.3781 101.1829,-176.279"/>
<polygon fill="#000000" stroke="#000000" points="102.5919,-179.493 110.8497,-172.8553 100.2549,-172.8947 102.5919,-179.493"/>
</g>
<!-- Layer&#45;0&#45;&gt;Compiz -->
<g id="edge5" class="edge">
<title>Layer&#45;0&#45;&gt;Compiz</title>
<path fill="none" stroke="#000000" d="M75.2227,-200.5798C101.9262,-203.2926 141.5105,-203.7569 172,-189 193.1729,-178.7523 210.4539,-158.2565 221.9389,-141.4286"/>
<polygon fill="#000000" stroke="#000000" points="224.88,-143.326 227.4064,-133.0368 219.015,-139.5048 224.88,-143.326"/>
</g>
<!-- Layer&#45;1 -->
<g id="node7" class="node">
<title>Layer&#45;1</title>
<polygon fill="#d3d3d3" stroke="#000000" points="75,-160 16,-160 16,-124 75,-124 75,-160"/>
<text text-anchor="middle" x="45.5" y="-138.3" font-family="Times,serif" font-size="14.00" fill="#000000">Layer&#45;1</text>
</g>
<!-- Layer&#45;1&#45;&gt;Scaler&#45;0 -->
<g id="edge2" class="edge">
<title>Layer&#45;1&#45;&gt;Scaler&#45;0</title>
<path fill="none" stroke="#000000" d="M75.0865,-148.1639C83.2435,-149.8632 92.2368,-151.7368 100.9005,-153.5418"/>
<polygon fill="#000000" stroke="#000000" points="100.346,-157.0013 110.8497,-155.6145 101.7738,-150.1485 100.346,-157.0013"/>
</g>
<!-- Layer&#45;1&#45;&gt;Compiz -->
<g id="edge6" class="edge">
<title>Layer&#45;1&#45;&gt;Compiz</title>
<path fill="none" stroke="#000000" d="M75.0792,-137.8404C107.918,-133.2225 161.0949,-125.7445 197.5997,-120.611"/>
<polygon fill="#000000" stroke="#000000" points="198.472,-124.0228 207.8872,-119.1643 197.4972,-117.091 198.472,-124.0228"/>
</g>
<!-- Layer&#45;2 -->
<g id="node8" class="node">
<title>Layer&#45;2</title>
<polygon fill="#d3d3d3" stroke="#000000" points="75,-106 16,-106 16,-70 75,-70 75,-106"/>
<text text-anchor="middle" x="45.5" y="-84.3" font-family="Times,serif" font-size="14.00" fill="#000000">Layer&#45;2</text>
</g>
<!-- Layer&#45;2&#45;&gt;Scaler&#45;1 -->
<g id="edge3" class="edge">
<title>Layer&#45;2&#45;&gt;Scaler&#45;1</title>
<path fill="none" stroke="#000000" d="M75.0865,-81.8361C83.2435,-80.1368 92.2368,-78.2632 100.9005,-76.4582"/>
<polygon fill="#000000" stroke="#000000" points="101.7738,-79.8515 110.8497,-74.3855 100.346,-72.9987 101.7738,-79.8515"/>
</g>
<!-- Layer&#45;2&#45;&gt;Compiz -->
<g id="edge7" class="edge">
<title>Layer&#45;2&#45;&gt;Compiz</title>
<path fill="none" stroke="#000000" d="M75.0792,-92.1596C107.918,-96.7775 161.0949,-104.2555 197.5997,-109.389"/>
<polygon fill="#000000" stroke="#000000" points="197.4972,-112.909 207.8872,-110.8357 198.472,-105.9772 197.4972,-112.909"/>
</g>
<!-- Layer&#45;3 -->
<g id="node9" class="node">
<title>Layer&#45;3</title>
<polygon fill="#d3d3d3" stroke="#000000" points="75,-52 16,-52 16,-16 75,-16 75,-52"/>
<text text-anchor="middle" x="45.5" y="-30.3" font-family="Times,serif" font-size="14.00" fill="#000000">Layer&#45;3</text>
</g>
<!-- Layer&#45;3&#45;&gt;Scaler&#45;1 -->
<g id="edge4" class="edge">
<title>Layer&#45;3&#45;&gt;Scaler&#45;1</title>
<path fill="none" stroke="#000000" d="M75.0865,-44.4786C83.3322,-47.3989 92.4324,-50.6219 101.1829,-53.721"/>
<polygon fill="#000000" stroke="#000000" points="100.2549,-57.1053 110.8497,-57.1447 102.5919,-50.507 100.2549,-57.1053"/>
</g>
<!-- Layer&#45;3&#45;&gt;Compiz -->
<g id="edge8" class="edge">
<title>Layer&#45;3&#45;&gt;Compiz</title>
<path fill="none" stroke="#000000" d="M75.2227,-29.4202C101.9262,-26.7074 141.5105,-26.2431 172,-41 193.1729,-51.2477 210.4539,-71.7435 221.9389,-88.5714"/>
<polygon fill="#000000" stroke="#000000" points="219.015,-90.4952 227.4064,-96.9632 224.88,-86.674 219.015,-90.4952"/>
</g>
<!-- Compiz&#45;&gt;Scaler&#45;0/1 -->
<g id="edge11" class="edge">
<title>Compiz&#45;&gt;Scaler&#45;0/1</title>
<path fill="none" stroke="#000000" d="M267.2571,-122.9549C275.3744,-125.1248 284.3571,-127.5261 293.131,-129.8717"/>
<polygon fill="#000000" stroke="#000000" points="292.3265,-133.2794 302.8912,-132.4808 294.1343,-126.5169 292.3265,-133.2794"/>
</g>
<!-- Improc -->
<g id="node12" class="node">
<title>Improc</title>
<polygon fill="#d3d3d3" stroke="#000000" points="366.5,-106 310.5,-106 310.5,-70 366.5,-70 366.5,-106"/>
<text text-anchor="middle" x="338.5" y="-84.3" font-family="Times,serif" font-size="14.00" fill="#000000">Improc</text>
</g>
<!-- Compiz&#45;&gt;Improc -->
<g id="edge13" class="edge">
<title>Compiz&#45;&gt;Improc</title>
<path fill="none" stroke="#000000" d="M267.2571,-107.0451C277.6819,-104.2583 289.5341,-101.0899 300.5384,-98.1482"/>
<polygon fill="#000000" stroke="#000000" points="301.5839,-101.4917 310.3407,-95.5277 299.776,-94.7291 301.5839,-101.4917"/>
</g>
<!-- Wb_layer&#45;&gt;Memory -->
<g id="edge15" class="edge">
<title>Wb_layer&#45;&gt;Memory</title>
<path fill="none" stroke="#000000" d="M503.7971,-142C518.4138,-142 535.6152,-142 551.6132,-142"/>
<polygon fill="#000000" stroke="#000000" points="551.9131,-145.5001 561.913,-142 551.913,-138.5001 551.9131,-145.5001"/>
</g>
<!-- Timing Controller -->
<g id="node13" class="node">
<title>Timing Controller</title>
<polygon fill="#d3d3d3" stroke="#000000" points="526,-106 410,-106 410,-70 526,-70 526,-106"/>
<text text-anchor="middle" x="468" y="-84.3" font-family="Times,serif" font-size="14.00" fill="#000000">Timing Controller</text>
</g>
<!-- Improc&#45;&gt;Timing Controller -->
<g id="edge14" class="edge">
<title>Improc&#45;&gt;Timing Controller</title>
<path fill="none" stroke="#000000" d="M366.5996,-88C376.4381,-88 387.9598,-88 399.6387,-88"/>
<polygon fill="#000000" stroke="#000000" points="399.9042,-91.5001 409.9041,-88 399.9041,-84.5001 399.9042,-91.5001"/>
</g>
<!-- Timing Controller&#45;&gt;Monitor -->
<g id="edge16" class="edge">
<title>Timing Controller&#45;&gt;Monitor</title>
<path fill="none" stroke="#000000" d="M526.1759,-88C535.2212,-88 544.5057,-88 553.3728,-88"/>
<polygon fill="#000000" stroke="#000000" points="553.551,-91.5001 563.551,-88 553.551,-84.5001 553.551,-91.5001"/>
</g>
</g>
</svg>
