<?xml version="1.0" encoding="UTF-8" standalone="no"?>
<!DOCTYPE svg PUBLIC "-//W3C//DTD SVG 1.1//EN"
 "http://www.w3.org/Graphics/SVG/1.1/DTD/svg11.dtd">
<!-- Generated by graphviz version 2.40.1 (20161225.0304)
 -->
<!-- Title: writeback_data_flow Pages: 1 -->
<svg width="456pt" height="98pt"
 viewBox="0.00 0.00 456.00 98.00" xmlns="http://www.w3.org/2000/svg" xmlns:xlink="http://www.w3.org/1999/xlink">
<g id="graph0" class="graph" transform="scale(1 1) rotate(0) translate(4 94)">
<title>writeback_data_flow</title>
<polygon fill="#ffffff" stroke="transparent" points="-4,4 -4,-94 452,-94 452,4 -4,4"/>
<!-- Compiz -->
<g id="node1" class="node">
<title>Compiz</title>
<polygon fill="none" stroke="#000000" points="59,-63 0,-63 0,-27 59,-27 59,-63"/>
<text text-anchor="middle" x="29.5" y="-41.3" font-family="Times,serif" font-size="14.00" fill="#000000">Compiz</text>
</g>
<!-- Splitter -->
<g id="node2" class="node">
<title>Splitter</title>
<polygon fill="none" stroke="#000000" points="151,-63 95,-63 95,-27 151,-27 151,-63"/>
<text text-anchor="middle" x="123" y="-41.3" font-family="Times,serif" font-size="14.00" fill="#000000">Splitter</text>
</g>
<!-- Compiz&#45;&gt;Splitter -->
<g id="edge1" class="edge">
<title>Compiz&#45;&gt;Splitter</title>
<path fill="none" stroke="#000000" d="M59.084,-45C67.2237,-45 76.1696,-45 84.7239,-45"/>
<polygon fill="#000000" stroke="#000000" points="84.8836,-48.5001 94.8835,-45 84.8835,-41.5001 84.8836,-48.5001"/>
</g>
<!-- Scaler&#45;0 -->
<g id="node3" class="node">
<title>Scaler&#45;0</title>
<polygon fill="none" stroke="#000000" points="248,-90 187,-90 187,-54 248,-54 248,-90"/>
<text text-anchor="middle" x="217.5" y="-68.3" font-family="Times,serif" font-size="14.00" fill="#000000">Scaler&#45;0</text>
</g>
<!-- Splitter&#45;&gt;Scaler&#45;0 -->
<g id="edge2" class="edge">
<title>Splitter&#45;&gt;Scaler&#45;0</title>
<path fill="none" stroke="#000000" d="M151.0973,-53.0278C159.2404,-55.3544 168.297,-57.942 177.0373,-60.4392"/>
<polygon fill="#000000" stroke="#000000" points="176.1285,-63.8196 186.7053,-63.2015 178.0516,-57.0889 176.1285,-63.8196"/>
</g>
<!-- Scaler&#45;1 -->
<g id="node5" class="node">
<title>Scaler&#45;1</title>
<polygon fill="none" stroke="#000000" points="248,-36 187,-36 187,0 248,0 248,-36"/>
<text text-anchor="middle" x="217.5" y="-14.3" font-family="Times,serif" font-size="14.00" fill="#000000">Scaler&#45;1</text>
</g>
<!-- Splitter&#45;&gt;Scaler&#45;1 -->
<g id="edge4" class="edge">
<title>Splitter&#45;&gt;Scaler&#45;1</title>
<path fill="none" stroke="#000000" d="M151.0973,-36.9722C159.2404,-34.6456 168.297,-32.058 177.0373,-29.5608"/>
<polygon fill="#000000" stroke="#000000" points="178.0516,-32.9111 186.7053,-26.7985 176.1285,-26.1804 178.0516,-32.9111"/>
</g>
<!-- Merger -->
<g id="node4" class="node">
<title>Merger</title>
<polygon fill="none" stroke="#000000" points="341,-63 284,-63 284,-27 341,-27 341,-63"/>
<text text-anchor="middle" x="312.5" y="-41.3" font-family="Times,serif" font-size="14.00" fill="#000000">Merger</text>
</g>
<!-- Scaler&#45;0&#45;&gt;Merger -->
<g id="edge3" class="edge">
<title>Scaler&#45;0&#45;&gt;Merger</title>
<path fill="none" stroke="#000000" d="M248.0815,-63.3084C256.3465,-60.9594 265.3976,-58.387 274.0349,-55.9322"/>
<polygon fill="#000000" stroke="#000000" points="275.2502,-59.2255 283.9123,-53.1249 273.3364,-52.4922 275.2502,-59.2255"/>
</g>
<!-- Wb_layer -->
<g id="node6" class="node">
<title>Wb_layer</title>
<polygon fill="none" stroke="#000000" points="448,-63 377,-63 377,-27 448,-27 448,-63"/>
<text text-anchor="middle" x="412.5" y="-41.3" font-family="Times,serif" font-size="14.00" fill="#000000">Wb_layer</text>
</g>
<!-- Merger&#45;&gt;Wb_layer -->
<g id="edge6" class="edge">
<title>Merger&#45;&gt;Wb_layer</title>
<path fill="none" stroke="#000000" d="M341.156,-45C349.1206,-45 357.9747,-45 366.6602,-45"/>
<polygon fill="#000000" stroke="#000000" points="366.7155,-48.5001 376.7154,-45 366.7154,-41.5001 366.7155,-48.5001"/>
</g>
<!-- Scaler&#45;1&#45;&gt;Merger -->
<g id="edge5" class="edge">
<title>Scaler&#45;1&#45;&gt;Merger</title>
<path fill="none" stroke="#000000" d="M248.0815,-26.6916C256.3465,-29.0406 265.3976,-31.613 274.0349,-34.0678"/>
<polygon fill="#000000" stroke="#000000" points="273.3364,-37.5078 283.9123,-36.8751 275.2502,-30.7745 273.3364,-37.5078"/>
</g>
</g>
</svg>
