<?xml version="1.0" encoding="UTF-8" standalone="no"?>
<!DOCTYPE svg PUBLIC "-//W3C//DTD SVG 1.1//EN"
 "http://www.w3.org/Graphics/SVG/1.1/DTD/svg11.dtd">
<!-- Generated by graphviz version 2.40.1 (20161225.0304)
 -->
<!-- Title: writeback_data_flow Pages: 1 -->
<svg width="271pt" height="44pt"
 viewBox="0.00 0.00 271.00 44.00" xmlns="http://www.w3.org/2000/svg" xmlns:xlink="http://www.w3.org/1999/xlink">
<g id="graph0" class="graph" transform="scale(1 1) rotate(0) translate(4 40)">
<title>writeback_data_flow</title>
<polygon fill="#ffffff" stroke="transparent" points="-4,4 -4,-40 267,-40 267,4 -4,4"/>
<!-- Scaler&#45;n -->
<g id="node1" class="node">
<title>Scaler&#45;n</title>
<polygon fill="none" stroke="#000000" stroke-dasharray="5,2" points="156,-36 95,-36 95,0 156,0 156,-36"/>
<text text-anchor="middle" x="125.5" y="-14.3" font-family="Times,serif" font-size="14.00" fill="#000000">Scaler&#45;n</text>
</g>
<!-- Wb_layer -->
<g id="node3" class="node">
<title>Wb_layer</title>
<polygon fill="none" stroke="#000000" points="263,-36 192,-36 192,0 263,0 263,-36"/>
<text text-anchor="middle" x="227.5" y="-14.3" font-family="Times,serif" font-size="14.00" fill="#000000">Wb_layer</text>
</g>
<!-- Scaler&#45;n&#45;&gt;Wb_layer -->
<g id="edge2" class="edge">
<title>Scaler&#45;n&#45;&gt;Wb_layer</title>
<path fill="none" stroke="#000000" d="M156.1034,-18C164.2014,-18 173.1208,-18 181.8305,-18"/>
<polygon fill="#000000" stroke="#000000" points="181.897,-21.5001 191.897,-18 181.8969,-14.5001 181.897,-21.5001"/>
</g>
<!-- Compiz -->
<g id="node2" class="node">
<title>Compiz</title>
<polygon fill="none" stroke="#000000" points="59,-36 0,-36 0,0 59,0 59,-36"/>
<text text-anchor="middle" x="29.5" y="-14.3" font-family="Times,serif" font-size="14.00" fill="#000000">Compiz</text>
</g>
<!-- Compiz&#45;&gt;Scaler&#45;n -->
<g id="edge1" class="edge">
<title>Compiz&#45;&gt;Scaler&#45;n</title>
<path fill="none" stroke="#000000" d="M59.0865,-18C67.1549,-18 76.0414,-18 84.6179,-18"/>
<polygon fill="#000000" stroke="#000000" points="84.8497,-21.5001 94.8497,-18 84.8497,-14.5001 84.8497,-21.5001"/>
</g>
</g>
</svg>
