<?xml version="1.0" encoding="UTF-8" standalone="no"?>
<!DOCTYPE svg PUBLIC "-//W3C//DTD SVG 1.1//EN"
 "http://www.w3.org/Graphics/SVG/1.1/DTD/svg11.dtd">
<!-- Generated by graphviz version 2.40.1 (20161225.0304)
 -->
<!-- Title: NFC Pages: 1 -->
<svg width="414pt" height="404pt"
 viewBox="0.00 0.00 413.68 404.00" xmlns="http://www.w3.org/2000/svg" xmlns:xlink="http://www.w3.org/1999/xlink">
<g id="graph0" class="graph" transform="scale(1 1) rotate(0) translate(4 400)">
<title>NFC</title>
<polygon fill="#ffffff" stroke="transparent" points="-4,4 -4,-400 409.6828,-400 409.6828,4 -4,4"/>
<!-- cl_nfc -->
<g id="node1" class="node">
<title>cl_nfc</title>
<ellipse fill="none" stroke="#000000" cx="209.9908" cy="-90" rx="55.7903" ry="18"/>
<text text-anchor="middle" x="209.9908" y="-86.3" font-family="Times,serif" font-size="14.00" fill="#000000">mei/bus(nfc)</text>
</g>
<!-- me_cl_nfc -->
<g id="node2" class="node">
<title>me_cl_nfc</title>
<ellipse fill="none" stroke="#000000" cx="209.9908" cy="-18" rx="53.0913" ry="18"/>
<text text-anchor="middle" x="209.9908" y="-14.3" font-family="Times,serif" font-size="14.00" fill="#000000">me fw (nfc)</text>
</g>
<!-- cl_nfc&#45;&gt;me_cl_nfc -->
<g id="edge1" class="edge">
<title>cl_nfc&#45;&gt;me_cl_nfc</title>
<path fill="none" stroke="#000000" d="M209.9908,-71.8314C209.9908,-64.131 209.9908,-54.9743 209.9908,-46.4166"/>
<polygon fill="#000000" stroke="#000000" points="213.4909,-46.4132 209.9908,-36.4133 206.4909,-46.4133 213.4909,-46.4132"/>
</g>
<!-- drivers/nfc/mei_phy -->
<g id="node3" class="node">
<title>drivers/nfc/mei_phy</title>
<ellipse fill="none" stroke="#000000" cx="209.9908" cy="-162" rx="83.3857" ry="18"/>
<text text-anchor="middle" x="209.9908" y="-158.3" font-family="Times,serif" font-size="14.00" fill="#000000">drivers/nfc/mei_phy</text>
</g>
<!-- drivers/nfc/mei_phy&#45;&gt;cl_nfc -->
<g id="edge2" class="edge">
<title>drivers/nfc/mei_phy&#45;&gt;cl_nfc</title>
<path fill="none" stroke="#000000" d="M209.9908,-143.8314C209.9908,-136.131 209.9908,-126.9743 209.9908,-118.4166"/>
<polygon fill="#000000" stroke="#000000" points="213.4909,-118.4132 209.9908,-108.4133 206.4909,-118.4133 213.4909,-118.4132"/>
</g>
<!-- drivers/nfc/microread/mei -->
<g id="node4" class="node">
<title>drivers/nfc/microread/mei</title>
<ellipse fill="none" stroke="#000000" cx="103.9908" cy="-234" rx="103.9815" ry="18"/>
<text text-anchor="middle" x="103.9908" y="-230.3" font-family="Times,serif" font-size="14.00" fill="#000000">drivers/nfc/microread/mei</text>
</g>
<!-- drivers/nfc/microread/mei&#45;&gt;cl_nfc -->
<g id="edge3" class="edge">
<title>drivers/nfc/microread/mei&#45;&gt;cl_nfc</title>
<path fill="none" stroke="#000000" d="M102.4656,-215.7927C101.7641,-196.3496 103.4084,-165.4449 117.9908,-144 128.7986,-128.1059 145.9634,-116.2239 162.5546,-107.7132"/>
<polygon fill="#000000" stroke="#000000" points="164.1754,-110.8175 171.669,-103.3278 161.1403,-104.5097 164.1754,-110.8175"/>
</g>
<!-- drivers/nfc/microread/mei&#45;&gt;drivers/nfc/mei_phy -->
<g id="edge4" class="edge">
<title>drivers/nfc/microread/mei&#45;&gt;drivers/nfc/mei_phy</title>
<path fill="none" stroke="#000000" d="M129.9213,-216.3868C143.8574,-206.9208 161.2068,-195.1363 176.1894,-184.9594"/>
<polygon fill="#000000" stroke="#000000" points="178.3882,-187.697 184.6937,-179.1829 174.455,-181.9065 178.3882,-187.697"/>
</g>
<!-- drivers/nfc/pn544/mei -->
<g id="node5" class="node">
<title>drivers/nfc/pn544/mei</title>
<ellipse fill="none" stroke="#000000" cx="315.9908" cy="-234" rx="89.8845" ry="18"/>
<text text-anchor="middle" x="315.9908" y="-230.3" font-family="Times,serif" font-size="14.00" fill="#000000">drivers/nfc/pn544/mei</text>
</g>
<!-- drivers/nfc/pn544/mei&#45;&gt;cl_nfc -->
<g id="edge5" class="edge">
<title>drivers/nfc/pn544/mei&#45;&gt;cl_nfc</title>
<path fill="none" stroke="#000000" d="M317.516,-215.7927C318.2174,-196.3496 316.5731,-165.4449 301.9908,-144 291.1829,-128.1059 274.0182,-116.2239 257.4269,-107.7132"/>
<polygon fill="#000000" stroke="#000000" points="258.8412,-104.5097 248.3125,-103.3278 255.8062,-110.8175 258.8412,-104.5097"/>
</g>
<!-- drivers/nfc/pn544/mei&#45;&gt;drivers/nfc/mei_phy -->
<g id="edge6" class="edge">
<title>drivers/nfc/pn544/mei&#45;&gt;drivers/nfc/mei_phy</title>
<path fill="none" stroke="#000000" d="M290.3311,-216.5708C276.3995,-207.1078 258.9972,-195.2874 243.9544,-185.0696"/>
<polygon fill="#000000" stroke="#000000" points="245.6529,-181.9923 235.4141,-179.2687 241.7197,-187.7828 245.6529,-181.9923"/>
</g>
<!-- net/nfc -->
<g id="node6" class="node">
<title>net/nfc</title>
<ellipse fill="none" stroke="#000000" cx="209.9908" cy="-306" rx="35.194" ry="18"/>
<text text-anchor="middle" x="209.9908" y="-302.3" font-family="Times,serif" font-size="14.00" fill="#000000">net/nfc</text>
</g>
<!-- net/nfc&#45;&gt;drivers/nfc/microread/mei -->
<g id="edge7" class="edge">
<title>net/nfc&#45;&gt;drivers/nfc/microread/mei</title>
<path fill="none" stroke="#000000" d="M188.7949,-291.6028C174.3892,-281.8178 155.009,-268.6539 138.4118,-257.3803"/>
<polygon fill="#000000" stroke="#000000" points="140.2661,-254.4088 130.0273,-251.6852 136.3329,-260.1993 140.2661,-254.4088"/>
</g>
<!-- net/nfc&#45;&gt;drivers/nfc/pn544/mei -->
<g id="edge8" class="edge">
<title>net/nfc&#45;&gt;drivers/nfc/pn544/mei</title>
<path fill="none" stroke="#000000" d="M231.1867,-291.6028C245.6953,-281.7479 265.2496,-268.4657 281.9249,-257.1391"/>
<polygon fill="#000000" stroke="#000000" points="284.0351,-259.9369 290.3406,-251.4227 280.1018,-254.1463 284.0351,-259.9369"/>
</g>
<!-- neard -->
<g id="node7" class="node">
<title>neard</title>
<ellipse fill="none" stroke="#000000" cx="209.9908" cy="-378" rx="30.5947" ry="18"/>
<text text-anchor="middle" x="209.9908" y="-374.3" font-family="Times,serif" font-size="14.00" fill="#000000">neard</text>
</g>
<!-- neard&#45;&gt;net/nfc -->
<g id="edge9" class="edge">
<title>neard&#45;&gt;net/nfc</title>
<path fill="none" stroke="#000000" d="M209.9908,-359.8314C209.9908,-352.131 209.9908,-342.9743 209.9908,-334.4166"/>
<polygon fill="#000000" stroke="#000000" points="213.4909,-334.4132 209.9908,-324.4133 206.4909,-334.4133 213.4909,-334.4132"/>
</g>
</g>
</svg>
