<?xml version="1.0" encoding="UTF-8" standalone="no"?>
<!DOCTYPE svg PUBLIC "-//W3C//DTD SVG 1.1//EN"
 "http://www.w3.org/Graphics/SVG/1.1/DTD/svg11.dtd">
<!-- Generated by graphviz version 2.40.1 (20161225.0304)
 -->
<!-- Title: %3 Pages: 1 -->
<svg width="288pt" height="116pt"
 viewBox="0.00 0.00 287.50 116.00" xmlns="http://www.w3.org/2000/svg" xmlns:xlink="http://www.w3.org/1999/xlink">
<g id="graph0" class="graph" transform="scale(1 1) rotate(0) translate(4 112)">
<title>%3</title>
<polygon fill="#ffffff" stroke="transparent" points="-4,4 -4,-112 283.5,-112 283.5,4 -4,4"/>
<!-- drm_property A -->
<g id="node1" class="node">
<title>drm_property A</title>
<polygon fill="none" stroke="#000000" points="256,-108 149,-108 149,-72 256,-72 256,-108"/>
<text text-anchor="middle" x="202.5" y="-86.3" font-family="Times,serif" font-size="14.00" fill="#000000">drm_property A</text>
</g>
<!-- drm_mode_object A -->
<g id="node2" class="node">
<title>drm_mode_object A</title>
<polygon fill="none" stroke="#000000" points="131,-36 0,-36 0,0 131,0 131,-36"/>
<text text-anchor="middle" x="65.5" y="-14.3" font-family="Times,serif" font-size="14.00" fill="#000000">drm_mode_object A</text>
</g>
<!-- drm_property A&#45;&gt;drm_mode_object A -->
<g id="edge1" class="edge">
<title>drm_property A&#45;&gt;drm_mode_object A</title>
<path fill="none" stroke="#000000" d="M167.9291,-71.8314C150.0815,-62.4516 128.1226,-50.9112 109.12,-40.9244"/>
<polygon fill="#000000" stroke="#000000" points="110.5401,-37.7168 100.0598,-36.1628 107.2836,-43.9132 110.5401,-37.7168"/>
</g>
<!-- drm_mode_object B -->
<g id="node3" class="node">
<title>drm_mode_object B</title>
<polygon fill="none" stroke="#000000" points="279.5,-36 149.5,-36 149.5,0 279.5,0 279.5,-36"/>
<text text-anchor="middle" x="214.5" y="-14.3" font-family="Times,serif" font-size="14.00" fill="#000000">drm_mode_object B</text>
</g>
<!-- drm_property A&#45;&gt;drm_mode_object B -->
<g id="edge2" class="edge">
<title>drm_property A&#45;&gt;drm_mode_object B</title>
<path fill="none" stroke="#000000" d="M205.5281,-71.8314C206.8115,-64.131 208.3376,-54.9743 209.7639,-46.4166"/>
<polygon fill="#000000" stroke="#000000" points="213.2394,-46.8526 211.4311,-36.4133 206.3347,-45.7018 213.2394,-46.8526"/>
</g>
<!-- drm_property B -->
<g id="node4" class="node">
<title>drm_property B</title>
<polygon fill="none" stroke="#000000" points="118.5,-108 12.5,-108 12.5,-72 118.5,-72 118.5,-108"/>
<text text-anchor="middle" x="65.5" y="-86.3" font-family="Times,serif" font-size="14.00" fill="#000000">drm_property B</text>
</g>
<!-- drm_property B&#45;&gt;drm_mode_object A -->
<g id="edge3" class="edge">
<title>drm_property B&#45;&gt;drm_mode_object A</title>
<path fill="none" stroke="#000000" d="M65.5,-71.8314C65.5,-64.131 65.5,-54.9743 65.5,-46.4166"/>
<polygon fill="#000000" stroke="#000000" points="69.0001,-46.4132 65.5,-36.4133 62.0001,-46.4133 69.0001,-46.4132"/>
</g>
</g>
</svg>
