<?xml version="1.0" encoding="UTF-8" standalone="no"?>
<!DOCTYPE svg PUBLIC "-//W3C//DTD SVG 1.1//EN"
 "http://www.w3.org/Graphics/SVG/1.1/DTD/svg11.dtd">
<!-- Generated by graphviz version 2.40.1 (20161225.0304)
 -->
<!-- Title: Fencing Cycle Pages: 1 -->
<svg width="482pt" height="48pt"
 viewBox="0.00 0.00 481.50 47.69" xmlns="http://www.w3.org/2000/svg" xmlns:xlink="http://www.w3.org/1999/xlink">
<g id="graph0" class="graph" transform="scale(1 1) rotate(0) translate(4 43.6902)">
<title>Fencing Cycle</title>
<polygon fill="#ffffff" stroke="transparent" points="-4,4 -4,-43.6902 477.5,-43.6902 477.5,4 -4,4"/>
<!-- kernel -->
<g id="node1" class="node">
<title>kernel</title>
<polygon fill="#d3d3d3" stroke="#000000" points="131,-39.6902 0,-39.6902 0,-3.6902 131,-3.6902 131,-39.6902"/>
<text text-anchor="middle" x="65.5" y="-17.9902" font-family="Times,serif" font-size="14.00" fill="#000000">Kernel DMA Fences</text>
</g>
<!-- userspace -->
<g id="node2" class="node">
<title>userspace</title>
<polygon fill="#d3d3d3" stroke="#000000" points="473.5,-39.6902 307.5,-39.6902 307.5,-3.6902 473.5,-3.6902 473.5,-39.6902"/>
<text text-anchor="middle" x="390.5" y="-17.9902" font-family="Times,serif" font-size="14.00" fill="#000000">userspace controlled fences</text>
</g>
<!-- kernel&#45;&gt;userspace -->
<g id="edge1" class="edge">
<title>kernel&#45;&gt;userspace</title>
<path fill="none" stroke="#000000" d="M131.1417,-7.3383C140.209,-5.8287 149.4331,-4.5378 158.25,-3.6902 212.2234,1.4987 226.2052,.6927 280.25,-3.6902 285.7471,-4.1359 291.3834,-4.7048 297.0601,-5.3639"/>
<polygon fill="#000000" stroke="#000000" points="296.9443,-8.8765 307.3005,-6.6406 297.8104,-1.9303 296.9443,-8.8765"/>
<text text-anchor="middle" x="219.25" y="-7.4902" font-family="Times,serif" font-size="14.00" fill="#000000">memory management</text>
</g>
<!-- userspace&#45;&gt;kernel -->
<g id="edge2" class="edge">
<title>userspace&#45;&gt;kernel</title>
<path fill="none" stroke="#000000" d="M307.4767,-21.6902C256.2854,-21.6902 191.1336,-21.6902 141.3332,-21.6902"/>
<polygon fill="#000000" stroke="#000000" points="141.2686,-18.1903 131.2686,-21.6902 141.2686,-25.1903 141.2686,-18.1903"/>
<text text-anchor="middle" x="219.25" y="-28.4902" font-family="Times,serif" font-size="14.00" fill="#000000">Future fence, fence proxy, ...</text>
</g>
</g>
</svg>
