<?xml version="1.0" encoding="UTF-8" standalone="no"?>
<!DOCTYPE svg PUBLIC "-//W3C//DTD SVG 1.1//EN"
 "http://www.w3.org/Graphics/SVG/1.1/DTD/svg11.dtd">
<!-- Generated by graphviz version 2.40.1 (20161225.0304)
 -->
<!-- Title: peer_states Pages: 1 -->
<svg width="378pt" height="218pt"
 viewBox="0.00 0.00 377.60 218.00" xmlns="http://www.w3.org/2000/svg" xmlns:xlink="http://www.w3.org/1999/xlink">
<g id="graph0" class="graph" transform="scale(1 1) rotate(0) translate(4 214)">
<title>peer_states</title>
<polygon fill="#ffffff" stroke="transparent" points="-4,4 -4,-214 373.5971,-214 373.5971,4 -4,4"/>
<!-- Secondary -->
<g id="node1" class="node">
<title>Secondary</title>
<ellipse fill="none" stroke="#000000" cx="170.5971" cy="-192" rx="48.1917" ry="18"/>
<text text-anchor="middle" x="170.5971" y="-188.3" font-family="Times,serif" font-size="14.00" fill="#000000">Secondary</text>
</g>
<!-- Primary -->
<g id="node2" class="node">
<title>Primary</title>
<ellipse fill="none" stroke="#000000" cx="82.5971" cy="-105" rx="40.0939" ry="18"/>
<text text-anchor="middle" x="82.5971" y="-101.3" font-family="Times,serif" font-size="14.00" fill="#000000">Primary</text>
</g>
<!-- Secondary&#45;&gt;Primary -->
<g id="edge1" class="edge">
<title>Secondary&#45;&gt;Primary</title>
<path fill="none" stroke="#000000" d="M123.4984,-188.2716C79.785,-183.7172 19.3133,-174.2498 4.5971,-156 -9.1208,-138.9883 13.3507,-125.7305 37.642,-117.0011"/>
<polygon fill="#000000" stroke="#000000" points="38.9545,-120.2529 47.3313,-113.766 36.7376,-113.6132 38.9545,-120.2529"/>
<text text-anchor="middle" x="50.0971" y="-144.8" font-family="Times,serif" font-size="14.00" fill="#000000">recv state packet</text>
</g>
<!-- Unknown -->
<g id="node3" class="node">
<title>Unknown</title>
<ellipse fill="none" stroke="#000000" cx="188.5971" cy="-18" rx="45.4919" ry="18"/>
<text text-anchor="middle" x="188.5971" y="-14.3" font-family="Times,serif" font-size="14.00" fill="#000000">Unknown</text>
</g>
<!-- Secondary&#45;&gt;Unknown -->
<g id="edge4" class="edge">
<title>Secondary&#45;&gt;Unknown</title>
<path fill="none" stroke="#000000" d="M193.9206,-176.1675C200.2039,-170.5991 206.1971,-163.7656 209.5971,-156 216.0238,-141.3215 242.0621,-186.5929 207.5971,-54 206.8048,-50.952 205.7127,-47.8743 204.449,-44.8697"/>
<polygon fill="#000000" stroke="#000000" points="207.492,-43.1228 199.9854,-35.6461 201.1911,-46.1721 207.492,-43.1228"/>
<text text-anchor="middle" x="264.0971" y="-101.3" font-family="Times,serif" font-size="14.00" fill="#000000">connection lost</text>
</g>
<!-- Primary&#45;&gt;Secondary -->
<g id="edge2" class="edge">
<title>Primary&#45;&gt;Secondary</title>
<path fill="none" stroke="#000000" d="M92.9021,-122.6952C99.4621,-133.0864 108.5892,-146.083 118.5971,-156 123.9056,-161.2603 130.0671,-166.2682 136.2527,-170.7861"/>
<polygon fill="#000000" stroke="#000000" points="134.4194,-173.7746 144.6248,-176.6208 138.4218,-168.0317 134.4194,-173.7746"/>
<text text-anchor="middle" x="164.0971" y="-144.8" font-family="Times,serif" font-size="14.00" fill="#000000">recv state packet</text>
</g>
<!-- Primary&#45;&gt;Unknown -->
<g id="edge3" class="edge">
<title>Primary&#45;&gt;Unknown</title>
<path fill="none" stroke="#000000" d="M61.3431,-89.4265C49.879,-79.1157 39.729,-65.437 48.5971,-54 59.3394,-40.1459 100.0529,-30.6914 134.8255,-24.9605"/>
<polygon fill="#000000" stroke="#000000" points="135.581,-28.3848 144.9147,-23.3716 134.4919,-21.47 135.581,-28.3848"/>
<text text-anchor="middle" x="90.0971" y="-57.8" font-family="Times,serif" font-size="14.00" fill="#000000">connection lost</text>
</g>
<!-- Unknown&#45;&gt;Secondary -->
<g id="edge6" class="edge">
<title>Unknown&#45;&gt;Secondary</title>
<path fill="none" stroke="#000000" d="M223.4653,-29.8728C267.7651,-46.9823 335.5392,-81.1598 309.5971,-123 290.7014,-153.4756 253.8818,-170.9131 222.8832,-180.6321"/>
<polygon fill="#000000" stroke="#000000" points="221.6595,-177.3437 213.0534,-183.5232 223.6347,-184.0593 221.6595,-177.3437"/>
<text text-anchor="middle" x="342.0971" y="-101.3" font-family="Times,serif" font-size="14.00" fill="#000000">connected</text>
</g>
<!-- Unknown&#45;&gt;Primary -->
<g id="edge5" class="edge">
<title>Unknown&#45;&gt;Primary</title>
<path fill="none" stroke="#000000" d="M170.7596,-34.7632C159.7129,-44.9405 145.1037,-58.0382 131.5971,-69 125.624,-73.8477 119.0808,-78.8527 112.7762,-83.5327"/>
<polygon fill="#000000" stroke="#000000" points="110.4009,-80.9341 104.4028,-89.6676 114.538,-86.5807 110.4009,-80.9341"/>
<text text-anchor="middle" x="176.0971" y="-57.8" font-family="Times,serif" font-size="14.00" fill="#000000">connected</text>
</g>
</g>
</svg>
