<?xml version="1.0" encoding="UTF-8" standalone="no"?>
<!DOCTYPE svg PUBLIC "-//W3C//DTD SVG 1.1//EN"
 "http://www.w3.org/Graphics/SVG/1.1/DTD/svg11.dtd">
<!-- Generated by graphviz version 2.40.1 (20161225.0304)
 -->
<!-- Title: srp_initiator Pages: 1 -->
<svg width="707pt" height="761pt"
 viewBox="0.00 0.00 707.50 760.85" xmlns="http://www.w3.org/2000/svg" xmlns:xlink="http://www.w3.org/1999/xlink">
<g id="graph0" class="graph" transform="scale(1 1) rotate(0) translate(4 756.8465)">
<title>srp_initiator</title>
<polygon fill="#ffffff" stroke="transparent" points="-4,4 -4,-756.8465 703.4983,-756.8465 703.4983,4 -4,4"/>
<!-- running -->
<g id="node1" class="node">
<title>running</title>
<ellipse fill="none" stroke="#000000" cx="217.4983" cy="-521.4754" rx="48.5974" ry="48.5974"/>
<ellipse fill="none" stroke="#000000" cx="217.4983" cy="-521.4754" rx="52.5816" ry="52.5816"/>
<text text-anchor="middle" x="217.4983" y="-540.2754" font-family="Times,serif" font-size="14.00" fill="#000000">running;</text>
<text text-anchor="middle" x="217.4983" y="-525.2754" font-family="Times,serif" font-size="14.00" fill="#000000">reconnect</text>
<text text-anchor="middle" x="217.4983" y="-510.2754" font-family="Times,serif" font-size="14.00" fill="#000000">timer</text>
<text text-anchor="middle" x="217.4983" y="-495.2754" font-family="Times,serif" font-size="14.00" fill="#000000">stopped</text>
</g>
<!-- lost -->
<g id="node2" class="node">
<title>lost</title>
<ellipse fill="none" stroke="#000000" cx="197.4983" cy="-27.3979" rx="23.3111" ry="23.3111"/>
<ellipse fill="none" stroke="#000000" cx="197.4983" cy="-27.3979" rx="27.2962" ry="27.2962"/>
<text text-anchor="middle" x="197.4983" y="-23.6979" font-family="Times,serif" font-size="14.00" fill="#000000">lost</text>
</g>
<!-- running&#45;&gt;lost -->
<g id="edge11" class="edge">
<title>running&#45;&gt;lost</title>
<path fill="none" stroke="#000000" d="M165.9223,-509.246C114.7297,-496.0053 41.382,-473.6797 23.4983,-450.685 -19.7495,-395.0773 11.0584,-363.3475 7.4983,-292.9918 6.1507,-266.3592 -2.0047,-257.9078 7.4983,-232.9918 41.509,-143.8191 84.3528,-141.5946 150.4983,-72.7958 156.6017,-66.4477 163.3251,-59.7753 169.7313,-53.5589"/>
<polygon fill="#000000" stroke="#000000" points="172.2701,-55.9732 177.0498,-46.5177 167.4168,-50.9288 172.2701,-55.9732"/>
<text text-anchor="middle" x="73.4983" y="-259.2918" font-family="Times,serif" font-size="14.00" fill="#000000">srp_stop_rport_timers()</text>
</g>
<!-- running_rta -->
<g id="node3" class="node">
<title>running_rta</title>
<ellipse fill="none" stroke="#000000" cx="385.4983" cy="-704.0561" rx="48.5816" ry="48.5816"/>
<text text-anchor="middle" x="385.4983" y="-722.8561" font-family="Times,serif" font-size="14.00" fill="#000000">running;</text>
<text text-anchor="middle" x="385.4983" y="-707.8561" font-family="Times,serif" font-size="14.00" fill="#000000">reconnect</text>
<text text-anchor="middle" x="385.4983" y="-692.8561" font-family="Times,serif" font-size="14.00" fill="#000000">timer</text>
<text text-anchor="middle" x="385.4983" y="-677.8561" font-family="Times,serif" font-size="14.00" fill="#000000">active</text>
</g>
<!-- running&#45;&gt;running_rta -->
<g id="edge1" class="edge">
<title>running&#45;&gt;running_rta</title>
<path fill="none" stroke="#000000" d="M268.9533,-533.7855C300.9463,-544.11 340.2778,-562.1492 363.4983,-592.2657 375.0648,-607.2672 381.0563,-626.6889 384.0252,-645.1244"/>
<polygon fill="#000000" stroke="#000000" points="380.5822,-645.7843 385.3798,-655.2306 387.5202,-644.8542 380.5822,-645.7843"/>
<text text-anchor="middle" x="454.9983" y="-626.0657" font-family="Times,serif" font-size="14.00" fill="#000000">fast_io_fail_tmo = off and</text>
<text text-anchor="middle" x="454.9983" y="-611.0657" font-family="Times,serif" font-size="14.00" fill="#000000">dev_loss_tmo = off;</text>
<text text-anchor="middle" x="454.9983" y="-596.0657" font-family="Times,serif" font-size="14.00" fill="#000000">srp_start_tl_fail_timers()</text>
</g>
<!-- blocked -->
<g id="node4" class="node">
<title>blocked</title>
<ellipse fill="none" stroke="#000000" cx="157.4983" cy="-349.3384" rx="38.1938" ry="38.1938"/>
<text text-anchor="middle" x="157.4983" y="-345.6384" font-family="Times,serif" font-size="14.00" fill="#000000">blocked</text>
</g>
<!-- running&#45;&gt;blocked -->
<g id="edge3" class="edge">
<title>running&#45;&gt;blocked</title>
<path fill="none" stroke="#000000" d="M165.9192,-508.3953C117.6568,-494.9894 50.7633,-473.0015 35.4983,-450.685 24.2068,-434.1774 24.7215,-422.5331 35.4983,-405.685 51.7735,-380.2411 82.7879,-366.1214 109.4719,-358.3796"/>
<polygon fill="#000000" stroke="#000000" points="110.6894,-361.6771 119.4471,-355.7144 108.8825,-354.9144 110.6894,-361.6771"/>
<text text-anchor="middle" x="104.4983" y="-439.485" font-family="Times,serif" font-size="14.00" fill="#000000">fast_io_fail_tmo &gt;= 0 or</text>
<text text-anchor="middle" x="104.4983" y="-424.485" font-family="Times,serif" font-size="14.00" fill="#000000">dev_loss_tmo &gt;= 0;</text>
<text text-anchor="middle" x="104.4983" y="-409.485" font-family="Times,serif" font-size="14.00" fill="#000000">srp_start_tl_fail_timers()</text>
</g>
<!-- failfast -->
<g id="node5" class="node">
<title>failfast</title>
<ellipse fill="none" stroke="#000000" cx="331.4983" cy="-175.3938" rx="39.6962" ry="39.6962"/>
<text text-anchor="middle" x="331.4983" y="-179.1938" font-family="Times,serif" font-size="14.00" fill="#000000">fail I/O</text>
<text text-anchor="middle" x="331.4983" y="-164.1938" font-family="Times,serif" font-size="14.00" fill="#000000">fast</text>
</g>
<!-- running&#45;&gt;failfast -->
<g id="edge4" class="edge">
<title>running&#45;&gt;failfast</title>
<path fill="none" stroke="#000000" d="M249.2856,-479.1219C255.0044,-470.0803 260.4309,-460.337 264.4983,-450.685 289.1582,-392.1673 279.4679,-372.6888 294.4983,-310.9918 301.6114,-281.7941 310.4434,-249.3079 317.6944,-223.4542"/>
<polygon fill="#000000" stroke="#000000" points="321.1468,-224.1068 320.4907,-213.5323 314.4092,-222.2079 321.1468,-224.1068"/>
<text text-anchor="middle" x="366.9983" y="-360.6384" font-family="Times,serif" font-size="14.00" fill="#000000">fast_io_fail_tmo = off and</text>
<text text-anchor="middle" x="366.9983" y="-345.6384" font-family="Times,serif" font-size="14.00" fill="#000000">dev_loss_tmo = off;</text>
<text text-anchor="middle" x="366.9983" y="-330.6384" font-family="Times,serif" font-size="14.00" fill="#000000">reconnecting failed</text>
</g>
<!-- running_rta&#45;&gt;running -->
<g id="edge2" class="edge">
<title>running_rta&#45;&gt;running</title>
<path fill="none" stroke="#000000" d="M337.8845,-691.9243C292.476,-679.2773 228.9236,-658.3867 214.4983,-637.2657 203.731,-621.5006 201.3624,-601.5039 202.644,-582.5823"/>
<polygon fill="#000000" stroke="#000000" points="206.138,-582.8166 203.6611,-572.5153 199.1735,-582.1128 206.138,-582.8166"/>
<text text-anchor="middle" x="286.9983" y="-626.0657" font-family="Times,serif" font-size="14.00" fill="#000000">fast_io_fail_tmo = off and</text>
<text text-anchor="middle" x="286.9983" y="-611.0657" font-family="Times,serif" font-size="14.00" fill="#000000">dev_loss_tmo = off;</text>
<text text-anchor="middle" x="286.9983" y="-596.0657" font-family="Times,serif" font-size="14.00" fill="#000000">reconnecting succeeded</text>
</g>
<!-- running_rta&#45;&gt;lost -->
<g id="edge12" class="edge">
<title>running_rta&#45;&gt;lost</title>
<path fill="none" stroke="#000000" d="M433.0735,-693.1824C465.0611,-683.5444 505.9046,-666.3533 531.4983,-637.2657 567.0985,-596.8058 567.4983,-575.3676 567.4983,-521.4754 567.4983,-521.4754 567.4983,-521.4754 567.4983,-175.3938 567.4983,-92.7805 488.7054,-104.6931 412.4983,-72.7958 353.204,-47.9776 278.8254,-36.1627 234.9044,-30.9854"/>
<polygon fill="#000000" stroke="#000000" points="235.2806,-27.5057 224.9518,-29.8649 234.4974,-34.4618 235.2806,-27.5057"/>
<text text-anchor="middle" x="633.4983" y="-345.6384" font-family="Times,serif" font-size="14.00" fill="#000000">srp_stop_rport_timers()</text>
</g>
<!-- blocked&#45;&gt;running -->
<g id="edge8" class="edge">
<title>blocked&#45;&gt;running</title>
<path fill="none" stroke="#000000" d="M170.1712,-385.6963C177.8547,-407.7397 187.8455,-436.4028 196.6664,-461.7096"/>
<polygon fill="#000000" stroke="#000000" points="193.3861,-462.9327 199.9826,-471.2235 199.9961,-460.6287 193.3861,-462.9327"/>
<text text-anchor="middle" x="225.4983" y="-431.985" font-family="Times,serif" font-size="14.00" fill="#000000">reconnecting</text>
<text text-anchor="middle" x="225.4983" y="-416.985" font-family="Times,serif" font-size="14.00" fill="#000000">succeeded</text>
</g>
<!-- blocked&#45;&gt;lost -->
<g id="edge6" class="edge">
<title>blocked&#45;&gt;lost</title>
<path fill="none" stroke="#000000" d="M150.9295,-311.4607C144.6871,-268.4096 137.9525,-196.2685 150.4983,-135.7958 155.9906,-109.3223 168.2874,-81.373 178.9254,-60.4861"/>
<polygon fill="#000000" stroke="#000000" points="182.1353,-61.9008 183.6661,-51.4171 175.9317,-58.658 182.1353,-61.9008"/>
<text text-anchor="middle" x="216.4983" y="-186.6938" font-family="Times,serif" font-size="14.00" fill="#000000">dev_loss_tmo</text>
<text text-anchor="middle" x="216.4983" y="-171.6938" font-family="Times,serif" font-size="14.00" fill="#000000">expired or</text>
<text text-anchor="middle" x="216.4983" y="-156.6938" font-family="Times,serif" font-size="14.00" fill="#000000">srp_stop_rport_timers()</text>
</g>
<!-- blocked&#45;&gt;failfast -->
<g id="edge5" class="edge">
<title>blocked&#45;&gt;failfast</title>
<path fill="none" stroke="#000000" d="M152.8772,-311.0912C152.0503,-285.6149 155.6943,-253.2198 175.4983,-232.9918 207.7026,-200.0981 235.165,-233.0749 277.4983,-214.9918 282.6434,-212.7941 287.7623,-210.0232 292.6832,-206.9725"/>
<polygon fill="#000000" stroke="#000000" points="294.9056,-209.6976 301.2896,-201.2421 291.0261,-203.871 294.9056,-209.6976"/>
<text text-anchor="middle" x="220.9983" y="-281.7918" font-family="Times,serif" font-size="14.00" fill="#000000">fast_io_fail_tmo</text>
<text text-anchor="middle" x="220.9983" y="-266.7918" font-family="Times,serif" font-size="14.00" fill="#000000">expired or</text>
<text text-anchor="middle" x="220.9983" y="-251.7918" font-family="Times,serif" font-size="14.00" fill="#000000">reconnecting</text>
<text text-anchor="middle" x="220.9983" y="-236.7918" font-family="Times,serif" font-size="14.00" fill="#000000">failed</text>
</g>
<!-- failfast&#45;&gt;running -->
<g id="edge10" class="edge">
<title>failfast&#45;&gt;running</title>
<path fill="none" stroke="#000000" d="M361.9151,-201.2631C405.537,-241.6277 476.718,-321.798 439.4983,-387.685 405.2228,-448.3603 331.1777,-484.5861 278.0211,-503.7395"/>
<polygon fill="#000000" stroke="#000000" points="276.6378,-500.5153 268.353,-507.1192 278.9478,-507.1232 276.6378,-500.5153"/>
<text text-anchor="middle" x="484.4983" y="-353.1384" font-family="Times,serif" font-size="14.00" fill="#000000">reconnecting</text>
<text text-anchor="middle" x="484.4983" y="-338.1384" font-family="Times,serif" font-size="14.00" fill="#000000">succeeded</text>
</g>
<!-- failfast&#45;&gt;lost -->
<g id="edge7" class="edge">
<title>failfast&#45;&gt;lost</title>
<path fill="none" stroke="#000000" d="M304.7035,-145.8003C280.8932,-119.5032 246.3329,-81.3331 222.9411,-55.4982"/>
<polygon fill="#000000" stroke="#000000" points="225.3709,-52.967 216.0645,-47.9032 220.1818,-57.6653 225.3709,-52.967"/>
<text text-anchor="middle" x="342.4983" y="-106.5958" font-family="Times,serif" font-size="14.00" fill="#000000">dev_loss_tmo</text>
<text text-anchor="middle" x="342.4983" y="-91.5958" font-family="Times,serif" font-size="14.00" fill="#000000">expired or</text>
<text text-anchor="middle" x="342.4983" y="-76.5958" font-family="Times,serif" font-size="14.00" fill="#000000">srp_stop_rport_timers()</text>
</g>
<!-- failfast&#45;&gt;failfast -->
<g id="edge9" class="edge">
<title>failfast&#45;&gt;failfast</title>
<path fill="none" stroke="#000000" d="M368.3367,-190.3856C379.9414,-190.1567 389.0963,-185.1595 389.0963,-175.3938 389.0963,-168.68 384.7692,-164.2199 378.2938,-162.0136"/>
<polygon fill="#000000" stroke="#000000" points="378.7675,-158.5448 368.3367,-160.4021 377.6491,-165.4549 378.7675,-158.5448"/>
<text text-anchor="middle" x="424.0963" y="-179.1938" font-family="Times,serif" font-size="14.00" fill="#000000">reconnecting</text>
<text text-anchor="middle" x="424.0963" y="-164.1938" font-family="Times,serif" font-size="14.00" fill="#000000">failed</text>
</g>
</g>
</svg>
